<?xml version="1.0" encoding="UTF-8" standalone="no"?>
<!-- Created with Inkscape (http://www.inkscape.org/) -->

<svg
   xmlns:dc="http://purl.org/dc/elements/1.1/"
   xmlns:cc="http://creativecommons.org/ns#"
   xmlns:rdf="http://www.w3.org/1999/02/22-rdf-syntax-ns#"
   xmlns:svg="http://www.w3.org/2000/svg"
   xmlns="http://www.w3.org/2000/svg"
   xmlns:sodipodi="http://sodipodi.sourceforge.net/DTD/sodipodi-0.dtd"
   xmlns:inkscape="http://www.inkscape.org/namespaces/inkscape"
   width="210mm"
   height="297mm"
   viewBox="0 0 210 297"
   version="1.1"
   id="svg8"
   inkscape:version="0.92.3 (2405546, 2018-03-11)"
   sodipodi:docname="schlusserklaerung.svg">
  <defs
     id="defs2" />
  <sodipodi:namedview
     id="base"
     pagecolor="#ffffff"
     bordercolor="#666666"
     borderopacity="1.0"
     inkscape:pageopacity="0.0"
     inkscape:pageshadow="2"
     inkscape:zoom="1.979899"
     inkscape:cx="266.73915"
     inkscape:cy="770.50841"
     inkscape:document-units="mm"
     inkscape:current-layer="layer1"
     showgrid="false"
     inkscape:window-width="1920"
     inkscape:window-height="1001"
     inkscape:window-x="-9"
     inkscape:window-y="-9"
     inkscape:window-maximized="1" />
  <metadata
     id="metadata5">
    <rdf:RDF>
      <cc:Work
         rdf:about="">
        <dc:format>image/svg+xml</dc:format>
        <dc:type
           rdf:resource="http://purl.org/dc/dcmitype/StillImage" />
        <dc:title></dc:title>
      </cc:Work>
    </rdf:RDF>
  </metadata>
  <g
     inkscape:label="Layer 1"
     inkscape:groupmode="layer"
     id="layer1">
    <path
       style="fill:#000000;stroke-width:1"
       d="m 42.060547,69.072266 c -0.05491,0.974268 -0.0772,1.950418 -0.150391,2.923828 -0.388202,-0.05533 -0.766871,-0.421502 -1.22734,-0.309404 -0.843325,-0.125223 -1.547879,0.706672 -1.456254,1.518388 -0.07905,0.827615 -0.160282,0.216735 -0.40039,-0.191406 -0.221487,-0.360893 -0.709425,-0.645047 -0.746094,-1.076172 0.20568,-0.42135 0.722603,-0.411206 1.007813,-0.703125 -0.41904,-0.509913 -1.142231,-0.206696 -1.503907,0.208984 -0.478293,0.578424 0.02986,1.27147 0.480817,1.687158 0.122581,0.213327 0.671344,0.644911 0.198871,0.697608 -1.174487,0.0655 -2.265804,0.829674 -3.476563,0.486328 -0.404381,-0.04333 -0.853585,-0.319649 -0.722656,-0.789062 0.7899,0.139009 1.650881,-0.558251 1.748047,-1.332032 0.02656,-0.546186 -0.785343,-0.421007 -1.09375,-0.242187 -0.693852,0.544186 -1.470609,1.479145 -1.015625,2.394531 0.888713,0.866394 2.39066,0.656681 3.3125,-0.0059 0.561895,0.29919 1.302426,0.297649 1.873047,-0.02734 0.219531,-0.175201 0.270047,-0.670102 0.640625,-0.34375 0.793684,0.361635 1.729809,-0.131122 2.1875,-0.771484 0.353101,-0.03737 0.03019,0.788654 0.501953,0.80664 0.484353,0.04975 0.03302,-0.511222 0.110218,-0.769875 -0.06299,-1.401691 -0.03056,-2.839753 -0.250843,-4.2145 z m -16.376953,0.03516 c -0.593238,0.04549 -1.287352,0.503604 -0.970703,1.195312 0.11646,0.586159 0.280866,0.79642 0.197857,0.06016 -0.15855,-0.653452 0.58793,-0.931501 1.112194,-0.844706 1.232852,-0.06248 2.445546,0.586067 3.246589,1.483767 0.647334,0.769008 0.659089,2.014701 -0.05469,2.736328 -0.558329,0.518036 -1.26198,0.943028 -2.025391,1.072266 -0.244158,-1.619754 -0.518713,-3.302644 -1.410156,-4.708985 -0.204061,0.388677 0.281115,0.864756 0.33746,1.300731 0.256969,0.903795 0.507,1.854108 0.467227,2.794973 -0.41031,-0.462469 -0.472359,0.420851 -0.433593,0.685546 0.137038,0.895548 1.295068,0.621954 1.86113,0.333652 0.939259,-0.416315 1.890349,-1.223777 2.135235,-2.256264 0.09355,-0.843364 -0.0016,-1.758393 -0.660826,-2.364895 -0.973433,-0.999735 -2.389826,-1.654113 -3.802336,-1.487883 z m 30.617187,0.927734 c -0.387388,0.107997 -1.068875,-0.03198 -1.228515,0.404297 0.08287,0.504429 0.336188,0.07078 0.578125,0.02148 0.731559,-0.07287 1.54761,-0.255741 2.246093,0.02734 0.577637,0.605872 -0.02208,1.439523 -0.375,1.986328 -0.575241,0.867417 -1.324325,1.616392 -2.080078,2.310547 0.01221,0.572841 0.85768,0.442628 1.23879,0.649064 1.293244,0.309645 2.707643,0.360154 3.987773,-0.03774 0.198402,-0.0232 0.83492,-0.399978 0.329736,-0.426951 -1.17134,0.07803 -2.355369,0.349029 -3.54384,0.117037 -0.456808,-0.07885 -0.927811,-0.134069 -1.367927,-0.279929 0.178729,-0.600285 0.863034,-0.953688 1.191396,-1.492979 0.651884,-0.76405 1.405848,-1.786236 1.011728,-2.842959 -0.400441,-0.692229 -1.341945,-0.395455 -1.988281,-0.435547 z m 5.435547,-0.0059 c -0.25005,0.38904 -0.08642,0.994899 -0.258848,1.458842 -0.06718,0.763657 -0.43409,1.515945 -0.346621,2.281392 0.451436,0.550362 1.34869,0.272768 1.9375,0.07227 0.109967,0.522186 -0.154281,1.161569 0.148438,1.601562 0.437527,0.137466 0.12124,-0.457162 0.192589,-0.676164 0.08223,-0.393196 -0.18882,-1.110465 0.35038,-1.151961 0.787901,-0.201308 -0.24945,-0.452194 -0.183722,-0.700354 0.198105,-0.636337 -0.157928,-0.586827 -0.245181,-0.02411 -0.09649,0.512983 -0.829501,0.44794 -1.227347,0.652198 -0.340988,0.09333 -0.769977,0.115885 -0.568461,-0.360507 0.123067,-1.022166 0.54029,-2.077718 0.351664,-3.098478 -0.03303,-0.04287 -0.09546,-0.07957 -0.150391,-0.05469 z m 13.720703,0.05664 c -1.162311,0.02476 -2.295034,0.555289 -3.458984,0.300781 -0.3649,0.05438 -0.349678,0.450124 -0.713676,0.562233 -0.59871,0.395686 -1.183698,1.370578 -0.549996,1.984642 0.474393,0.503572 1.188359,0.622274 1.673828,1.078125 0.188939,0.45951 -0.515416,0.492963 -0.808594,0.638672 -0.519153,0.08774 -1.046636,0.402998 -1.566406,0.330078 0.06105,-0.328333 0.422637,-1.033933 -0.111328,-0.5 -0.424776,0.267031 -1.064605,1.07427 -0.363281,1.404297 1.005471,0.06211 1.978153,-0.41577 2.890625,-0.751954 0.69979,-0.321426 0.799303,-1.315639 0.115234,-1.724609 -0.520956,-0.36518 -1.258271,-0.537376 -1.648437,-1.001953 -0.02821,-0.610935 0.28414,-1.144651 0.703125,-1.5625 0.547746,0.598068 1.496517,0.315367 2.205677,0.235159 0.866048,-0.230092 1.803233,-0.459268 2.563854,-0.907034 -0.285197,-0.132838 -0.625069,-0.09245 -0.931641,-0.08594 z m 2.59961,0.503906 c -0.554021,-0.0064 -1.496988,0.416205 -1.195313,1.082031 0.303374,0.133326 0.238646,-0.498407 0.622409,-0.399168 0.467396,-0.09708 1.342203,-0.331147 1.430325,0.369871 0.171641,1.003128 -0.769486,1.628849 -1.393887,2.222131 -0.420716,0.463695 -1.189333,0.777429 -1.25455,1.455603 0.306918,0.654539 1.223653,0.35576 1.805463,0.441889 0.657007,0.02015 1.49116,-0.02324 1.917193,-0.553217 -0.852416,-0.309198 -1.898789,-0.140199 -2.826172,-0.248046 0.72587,-0.886251 1.980618,-1.52796 2.293788,-2.636321 0.217249,-0.733794 -0.127189,-1.672464 -0.971522,-1.738679 -0.142718,-0.0067 -0.285117,-0.0032 -0.427734,0.0039 z m 8.052734,0.21875 c -1.015104,0.829939 -1.746931,1.937615 -2.527344,2.947265 -0.08469,0.167281 -0.356138,0.68376 -0.01953,0.623047 0.223309,-0.671371 0.802898,-1.223626 1.250501,-1.778179 0.351654,-0.356686 0.610824,-0.73848 0.954577,-1.087055 -0.145373,0.83473 -0.457669,1.531859 -0.487917,2.396228 -0.0041,0.604726 -0.291654,1.309718 -0.02576,1.863538 0.42548,0.13034 0.128564,-0.712537 0.271712,-0.972473 0.136746,-1.298375 0.322069,-2.594804 0.714616,-3.838074 0.0042,-0.0631 -0.01519,-0.236834 -0.130859,-0.154297 z M 68.1875,70.992188 c -1.015817,0.213344 -1.586964,1.312956 -1.462891,2.298828 -0.300516,0.825207 0.150499,2.038514 1.158041,2.020266 0.76278,0.05721 1.112263,-0.783426 1.369303,-1.367923 0.186236,-0.79168 0.404225,-1.689803 0.138672,-2.474609 -0.269536,-0.442199 -0.718938,-0.521332 -1.203125,-0.476562 z m -24.011719,0.228515 c -0.640999,0.266407 -0.789898,1.012716 -1.189453,1.486328 -0.0067,0.352576 0.160564,0.677644 0.115234,1.056641 0.09379,0.881138 1.321924,1.297667 1.891898,0.576654 0.570128,-0.705599 0.581064,-0.272704 0.477335,0.408262 0.257394,0.470942 0.803433,0.217992 0.926157,-0.219433 0.543174,-0.980249 1.195641,-1.966673 2.206564,-2.515483 0.08638,0.901999 -0.101902,1.852508 0.138672,2.724609 0.40811,0.420546 0.664793,-0.267771 0.572855,-0.623436 -0.069,-0.845004 0.188238,-1.868854 -0.399027,-2.569923 -0.904719,-0.256237 -1.508827,0.617527 -2.091797,1.158203 -0.343829,0.326104 -0.544029,0.7116 -0.814453,1.095703 -0.0037,-0.727747 0.330922,-1.47283 0.107422,-2.185547 -0.524559,-0.03839 -0.25827,0.758423 -0.460938,1.082031 -0.37024,0.606611 -0.792387,1.444207 -1.568359,1.541016 -0.621741,-0.145524 -0.873532,-1.162195 -0.210938,-1.417969 0.443583,-0.352405 0.978409,-0.94929 0.667969,-1.537109 -0.111989,-0.05783 -0.243357,-0.108573 -0.369141,-0.06055 z m 43.685547,0.07227 c -0.855491,0.391924 -1.295259,1.47183 -1.162109,2.355469 0.09278,0.373977 0.661365,0.06963 0.679687,0.476562 0.451529,0.295311 0.746528,-0.601084 1.058594,-0.326172 -0.187363,0.746992 -0.555271,1.634301 -1.308594,1.941406 -0.34814,0.0202 -0.942903,0.02371 -0.5625,0.5 0.896256,0.516198 1.79888,-0.390607 1.972656,-1.242187 0.343066,-1.081567 0.29383,-2.316044 0.181641,-3.384766 -0.278079,-0.13172 -0.511575,-0.415397 -0.859375,-0.320312 z m -6.021484,0.07617 c -0.965854,0.127052 -1.073649,1.318851 -0.938213,2.105823 -0.04371,0.587928 -0.420067,1.486318 0.334697,1.769177 1.050146,0.284866 1.758463,-0.855944 1.905138,-1.740061 0.08681,-0.743719 0.09912,-1.70541 -0.733263,-2.03533 -0.178533,-0.07906 -0.373107,-0.117678 -0.568359,-0.09961 z m -13.400391,0.03516 c 0.758763,-0.03599 0.69794,0.906599 0.611758,1.423046 -0.11949,0.754529 -0.254975,1.605869 -0.859805,2.123829 -0.659431,0.362522 -1.559784,-0.476328 -1.384765,-1.123047 0.397626,0.350646 0.19167,-0.342605 0.291249,-0.604602 0.05132,-0.776016 0.421696,-1.803333 1.341563,-1.819226 z m -36.330078,0.173828 c -0.840615,0.38604 -0.436361,1.472446 -0.433192,2.184831 0.02061,0.343464 0.13912,0.854019 0.316005,1.043685 0.131542,-0.879462 0.0104,-1.822051 0.27539,-2.669922 0.125657,-0.255633 0.868445,-0.05392 0.476563,-0.369141 -0.116737,-0.1836 -0.43666,-0.21788 -0.634766,-0.189453 z M 44.25,71.595703 c 0.207998,0.315672 -0.28955,0.753949 -0.544922,0.984375 -0.322086,-0.156616 0.143618,-0.614432 0.289063,-0.851562 0.06735,-0.04943 0.155059,-0.182658 0.255859,-0.132813 z m 43.728516,0.0957 c 0.499314,0.01328 0.270578,0.556109 0.01149,0.745844 -0.272264,0.213815 -0.396998,0.749305 -0.788829,0.736578 0.02453,-0.535158 0.240481,-1.267351 0.777344,-1.482422 z m -6.095704,0.160156 c 0.676103,-0.03325 0.868116,0.690574 0.740235,1.228516 -0.07762,0.669655 -0.398057,1.656678 -1.203125,1.671875 -0.618115,-0.244976 -0.340346,-1.092919 -0.292969,-1.591797 0.178734,-0.428352 0.215541,-1.186508 0.755859,-1.308594 z m -41.191406,0.07617 c 0.439384,0.0028 1.094773,0.266389 0.839591,0.815407 -0.200451,0.749386 -1.13438,1.204624 -1.843497,0.93264 0.245241,-0.25039 -0.0755,-0.358745 -0.154297,-0.642578 -0.02285,-0.593786 0.580345,-1.127514 1.158203,-1.105469 z m -5.480468,0.28711 c 0.529274,0.01118 0.01868,0.612054 -0.197266,0.783203 -0.19145,0.175117 -0.840896,0.64724 -0.824219,0.167969 0.232458,-0.405943 0.568889,-0.814166 1.021485,-0.951172 z m 15.90039,2.167968 c -0.065,0.500118 -0.01669,1.110357 -0.31381,1.591752 -0.231426,0.641659 -0.61364,1.209182 -1.088534,1.683639 0.151176,0.608056 0.900244,0.03108 1.021978,-0.343667 0.527082,-0.857233 0.730639,-2.000453 0.40185,-2.941489 z m 14.460938,0.03125 c -0.549363,0.318672 0.421215,0.399675 0.07422,-0.002 l -0.02539,-0.0039 z m 9.033203,1.125 c -0.55797,0.134118 0.07769,0.89885 0.359375,0.382813 0.143963,-0.23721 -0.101264,-0.478151 -0.359375,-0.382813 z"
       id="path843"
       inkscape:connector-curvature="0" />
    <path
       style="fill:#000000;stroke-width:0.99999994"
       d="m 121.36526,77.562797 c -0.091,-0.100556 -0.20461,-0.515504 -0.29776,-1.08754 -0.0296,-0.18175 -0.07,-0.427684 -0.0898,-0.54652 -0.0198,-0.118836 -0.0545,-0.381929 -0.0771,-0.584649 -0.0786,-0.705046 -0.25512,-1.902929 -0.32779,-2.22421 -0.11734,-0.518779 -0.1775,-0.764535 -0.19057,-0.778434 -0.008,-0.0087 -0.135,0.0052 -0.28179,0.03087 -0.39483,0.0691 -0.5871,0.06421 -0.73966,-0.01883 -0.0896,-0.04874 -0.138,-0.09678 -0.17528,-0.173781 -0.0498,-0.102823 -0.0502,-0.113609 -0.0112,-0.318919 0.0651,-0.343044 0.0804,-0.360567 0.65924,-0.754924 0.0979,-0.06667 0.18708,-0.127965 0.19826,-0.136206 0.0112,-0.0082 -0.004,-0.113723 -0.0347,-0.234403 -0.0304,-0.121398 -0.0479,-0.247804 -0.0391,-0.282961 0.0197,-0.07846 0.0959,-0.122113 0.17752,-0.101636 0.0573,0.01438 0.0724,0.05934 0.22036,0.655168 0.0874,0.351849 0.16306,0.644703 0.16823,0.650786 0.0206,0.02427 0.67349,-0.220494 0.69056,-0.258902 0.005,-0.01049 0.0188,-0.01907 0.0314,-0.01907 0.0633,0 0.57244,-0.278127 0.7345,-0.401244 0.29044,-0.22064 0.63644,-0.535322 0.63644,-0.578832 0,-0.01697 0.0271,-0.04859 0.0601,-0.07027 0.0745,-0.04883 0.29573,-0.355116 0.29573,-0.409481 0,-0.02196 0.0105,-0.03993 0.0234,-0.03993 0.0498,0 0.0737,-0.235807 0.0498,-0.490474 -0.0214,-0.227035 -0.0339,-0.270625 -0.11704,-0.40523 -0.0512,-0.08296 -0.12608,-0.175592 -0.16639,-0.205858 -0.0403,-0.03026 -0.10958,-0.09066 -0.15392,-0.134214 -0.12041,-0.118256 -0.28883,-0.224117 -0.55428,-0.348381 -0.30753,-0.143964 -0.41157,-0.179416 -0.78462,-0.267371 -0.41246,-0.09725 -0.71912,-0.115724 -1.38536,-0.08346 -0.92755,0.04492 -1.29849,0.127931 -1.9325,0.432491 -0.47011,0.22583 -0.82614,0.490623 -1.10283,0.820232 -0.31037,0.369723 -0.35731,0.496305 -0.35781,0.964925 -4.3e-4,0.406312 0.0284,0.520847 0.22682,0.901251 0.0708,0.135685 0.12869,0.275295 0.12869,0.310244 0,0.131355 -0.16546,0.176185 -0.25064,0.06791 -0.08,-0.10171 -0.29943,-0.544107 -0.34261,-0.690742 -0.0284,-0.09632 -0.0405,-0.270716 -0.0443,-0.635489 l -0.005,-0.502734 0.099,-0.201363 c 0.0544,-0.11075 0.12587,-0.230857 0.15874,-0.266905 0.0329,-0.03605 0.075,-0.09414 0.0935,-0.129091 0.0531,-0.09988 0.54228,-0.566605 0.71098,-0.678332 0.0839,-0.05556 0.19827,-0.131 0.25419,-0.167655 0.2396,-0.157044 0.86168,-0.416999 1.1642,-0.4865 0.38101,-0.08753 1.04198,-0.140858 1.74634,-0.140895 0.37228,-2e-5 0.76023,0.04228 1.01678,0.110877 0.0769,0.02056 0.20272,0.05418 0.27962,0.07472 0.18637,0.04979 0.22118,0.06417 0.56023,0.231554 0.38042,0.187808 0.41549,0.209214 0.56435,0.344479 0.0692,0.06291 0.1436,0.124469 0.16526,0.136791 0.0428,0.02436 0.18906,0.183486 0.21045,0.229015 0.0412,0.08768 0.13403,0.217228 0.14902,0.207962 0.01,-0.0059 0.0184,0.0084 0.0195,0.03181 10e-4,0.02344 0.0208,0.111251 0.0438,0.195136 0.023,0.08388 0.0491,0.262151 0.0579,0.396148 0.0218,0.33263 -0.0319,0.547271 -0.20631,0.82399 -0.0352,0.05592 -0.072,0.118329 -0.0817,0.138681 -0.0518,0.108845 -0.55751,0.65239 -0.75786,0.814551 -0.095,0.07689 -0.19804,0.162685 -0.22898,0.190647 -0.0309,0.02796 -0.11188,0.07944 -0.17989,0.114388 -0.068,0.03495 -0.15828,0.08695 -0.20063,0.115553 -0.12968,0.08758 -0.45121,0.258864 -0.5854,0.311848 -0.23286,0.09195 -0.54847,0.226987 -0.56191,0.240426 -0.007,0.0073 0.0383,0.246082 0.10137,0.530631 0.0631,0.284548 0.13264,0.61459 0.15466,0.733427 0.022,0.118836 0.0503,0.250382 0.063,0.292324 0.0126,0.04194 0.0575,0.282157 0.0998,0.533811 0.0423,0.251653 0.089,0.526184 0.10393,0.610069 0.0472,0.265647 0.0764,0.441743 0.17953,1.08033 0.11506,0.712673 0.15709,0.908994 0.24668,1.152325 0.0596,0.16176 0.07,0.343747 0.0224,0.391334 -0.008,0.0079 -0.0689,0.01954 -0.13562,0.02595 -0.0971,0.0093 -0.13018,0.0019 -0.16558,-0.03722 z m -1.37918,-5.777919 c 0.28995,-0.04366 0.27159,-0.01607 0.19904,-0.299188 -0.0348,-0.135772 -0.0684,-0.262939 -0.0747,-0.282593 -0.008,-0.02438 -0.0314,-0.0087 -0.0741,0.04927 -0.0345,0.04675 -0.072,0.09143 -0.0832,0.09928 -0.0113,0.0079 -0.08,0.08637 -0.15263,0.174473 -0.0948,0.114991 -0.13211,0.181906 -0.13211,0.23715 0,0.07047 0.006,0.07576 0.0699,0.06268 0.0384,-0.0079 0.14997,-0.02634 0.24784,-0.04107 z m 5.45655,4.560669 c -0.22309,-0.05923 -0.62471,-0.222757 -0.76665,-0.312165 -0.0693,-0.04366 -0.37577,-0.295779 -0.49224,-0.404963 -0.16715,-0.156683 -0.49345,-0.600906 -0.6047,-0.823237 -0.23098,-0.461561 -0.25618,-0.562736 -0.26155,-1.049816 -0.005,-0.475754 0.0261,-0.86301 0.0911,-1.127331 0.0352,-0.143209 0.0444,-0.220851 0.0266,-0.226762 -0.055,-0.01834 -0.23649,-0.16168 -0.25031,-0.197711 -0.008,-0.02051 -0.007,-0.07681 0.002,-0.125107 0.0141,-0.07518 0.029,-0.09016 0.10353,-0.104139 0.0649,-0.01217 0.10914,-0.0027 0.17361,0.03716 0.0476,0.02942 0.0972,0.05349 0.11031,0.05349 0.0131,0 0.0443,-0.05704 0.0693,-0.126761 0.0251,-0.06972 0.0652,-0.15265 0.0892,-0.184292 0.0876,-0.115506 0.18244,-0.300388 0.16697,-0.325421 -0.009,-0.01413 -0.003,-0.02255 0.0138,-0.01871 0.0163,0.0038 0.0429,-0.01396 0.0591,-0.03956 0.0529,-0.0837 0.53474,-0.54901 0.66489,-0.642067 0.26552,-0.189842 0.30117,-0.201141 0.61812,-0.195925 0.33748,0.0056 0.43351,0.0317 0.53315,0.145185 0.0635,0.07231 0.0755,0.110964 0.0887,0.284417 0.022,0.290693 -0.0285,0.542319 -0.15033,0.747925 -0.11306,0.190851 -0.29139,0.427892 -0.32352,0.430016 -0.012,7.96e-4 -0.0763,0.04702 -0.14286,0.102725 -0.17006,0.142383 -0.488,0.299269 -0.64507,0.318304 -0.0719,0.0087 -0.27941,0.0057 -0.46116,-0.0068 -0.18175,-0.01245 -0.33403,-0.02009 -0.33841,-0.01699 -0.0209,0.01481 -0.0821,0.44798 -0.0857,0.606884 -0.005,0.211378 0.0415,0.765971 0.0776,0.9292 0.0247,0.111621 0.14805,0.406795 0.18059,0.432132 0.009,0.007 0.0322,0.05275 0.0516,0.101678 0.0194,0.04893 0.0417,0.09469 0.0496,0.101678 0.008,0.007 0.0459,0.06133 0.0844,0.120743 0.0385,0.05942 0.0813,0.108033 0.0951,0.108033 0.0138,0 0.0251,0.01656 0.0251,0.0368 0,0.06275 0.35368,0.403843 0.55738,0.537538 0.40632,0.266683 0.75112,0.371976 1.3369,0.408252 0.32775,0.0203 0.58632,-0.04567 0.86849,-0.221569 0.16625,-0.103636 0.64298,-0.565183 0.6433,-0.62281 8e-5,-0.01486 0.0355,-0.06061 0.0787,-0.101678 0.0432,-0.04106 0.0963,-0.108976 0.11793,-0.150918 0.0217,-0.04194 0.0483,-0.08206 0.0592,-0.08916 0.017,-0.01109 0.11222,-0.182259 0.26155,-0.470073 0.0577,-0.111225 0.12819,-0.277705 0.21523,-0.508391 0.20293,-0.537856 0.21282,-0.59652 0.10089,-0.59826 -0.0319,-4.96e-4 -0.17474,-0.03306 -0.31742,-0.07236 -0.2017,-0.05555 -0.29109,-0.09536 -0.40168,-0.178856 -0.15427,-0.11647 -0.19718,-0.190877 -0.17475,-0.303017 0.0382,-0.190951 0.37764,-0.203793 1.11745,-0.04228 0.0468,0.01021 0.0561,-0.0062 0.0816,-0.14326 0.0244,-0.131153 0.0183,-0.250433 -0.0396,-0.781038 -0.0664,-0.608115 -0.0683,-0.66819 -0.0666,-2.075159 0.002,-1.641344 0.0329,-2.325356 0.12011,-2.657205 0.0483,-0.184082 0.0668,-0.22013 0.12756,-0.249274 0.13935,-0.06683 0.29262,0.04943 0.34653,0.262847 0.0407,0.161127 0.0389,3.20981 -0.002,3.87648 -0.0245,0.396663 -0.0218,0.497151 0.0248,0.927813 0.0288,0.265634 0.06,0.5825 0.0693,0.704146 l 0.017,0.221175 0.21903,2.29e-4 c 0.12047,1.27e-4 0.45923,0.0071 0.75281,0.01547 0.49713,0.01419 0.5377,0.01893 0.591,0.069 0.12411,0.116595 0.0399,0.242016 -0.20968,0.312195 -0.0839,0.02359 -0.21931,0.06432 -0.30094,0.09052 -0.14766,0.04738 -0.52771,0.09328 -0.81621,0.09858 -0.0832,0.0015 -0.15562,0.0072 -0.161,0.01256 -0.005,0.0054 0.009,0.168018 0.0312,0.361417 0.0225,0.193398 0.0634,0.580409 0.0909,0.860024 0.0275,0.279615 0.0742,0.737167 0.10374,1.016782 0.0585,0.552466 0.0546,0.798043 -0.0138,0.866353 -0.0567,0.05669 -0.21766,0.05851 -0.30177,0.0034 -0.0371,-0.02434 -0.0752,-0.07557 -0.0846,-0.113842 -0.009,-0.03827 -0.0249,-0.0753 -0.0346,-0.08229 -0.01,-0.007 -0.036,-0.127098 -0.0584,-0.266905 -0.0432,-0.26827 -0.063,-0.442434 -0.1462,-1.283687 -0.0917,-0.926938 -0.14153,-1.371368 -0.15539,-1.385235 -0.007,-0.0075 -0.0343,0.06381 -0.0596,0.158377 -0.10152,0.37936 -0.30399,0.943164 -0.44653,1.243415 -0.0829,0.174575 -0.15069,0.323157 -0.15069,0.330179 0,0.007 -0.0178,0.03058 -0.0396,0.05236 -0.0218,0.02177 -0.0336,0.05514 -0.0263,0.07414 0.007,0.019 1e-4,0.03182 -0.016,0.0285 -0.0161,-0.0033 -0.0471,0.02893 -0.069,0.07168 -0.0366,0.07158 -0.17161,0.261144 -0.20717,0.290855 -0.008,0.007 -0.0582,0.06938 -0.11065,0.138638 -0.0958,0.126414 -0.35653,0.395173 -0.38336,0.395173 -0.008,0 -0.0739,0.04385 -0.14671,0.09743 -0.15626,0.115023 -0.36692,0.224502 -0.52637,0.273544 -0.0811,0.02495 -0.25482,0.03481 -0.59735,0.0339 -0.43085,-0.0012 -0.5086,-0.0081 -0.7204,-0.06432 z m -1.01482,-4.153453 c 0.16402,-0.01596 0.28406,-0.04261 0.35587,-0.07902 0.11409,-0.05784 0.3302,-0.222924 0.40941,-0.312736 0.0258,-0.02921 0.083,-0.09315 0.12717,-0.142085 0.0442,-0.04893 0.11175,-0.154021 0.15016,-0.23353 0.0583,-0.120701 0.0698,-0.178145 0.0698,-0.348019 0,-0.132 -0.0108,-0.210147 -0.0308,-0.222507 -0.017,-0.01048 -0.12334,-0.02391 -0.23642,-0.02984 -0.191,-0.01002 -0.21685,-0.0051 -0.36413,0.06923 -0.34893,0.176142 -0.79367,0.732903 -0.95841,1.199812 -0.0333,0.09436 -0.0328,0.09574 0.0345,0.106035 0.12033,0.01839 0.19023,0.01723 0.44284,-0.0073 z m 16.07183,4.175857 c -0.33254,-0.05473 -0.33918,-0.07941 -0.44645,-1.659352 -0.0432,-0.636124 -0.0825,-1.288135 -0.0874,-1.448914 -0.005,-0.160778 -0.0226,-0.469626 -0.0393,-0.686327 -0.0167,-0.216702 -0.0333,-0.502672 -0.037,-0.635489 -0.0148,-0.542249 -0.0668,-1.815082 -0.0747,-1.828508 -0.005,-0.0079 -2.4e-4,-0.357572 0.01,-0.776995 0.0193,-0.806548 0.0307,-0.876974 0.14119,-0.876974 0.10883,0 0.12173,0.07441 0.14316,0.826135 0.0112,0.391461 0.0384,0.900488 0.0604,1.13117 0.0221,0.230682 0.05,0.522371 0.062,0.648198 0.012,0.125827 0.023,0.263822 0.0243,0.306657 l 0.002,0.07788 0.15416,-0.01115 c 0.14183,-0.01026 0.16014,-0.0054 0.22878,0.06033 0.0594,0.05696 0.0746,0.09327 0.0746,0.178728 0,0.09946 0.009,0.113823 0.1261,0.197843 0.0694,0.04983 0.16373,0.107865 0.20971,0.128971 0.046,0.02111 0.10077,0.04884 0.12174,0.06163 0.10005,0.06102 0.51659,0.229894 0.53658,0.217539 0.0125,-0.0077 0.0226,-0.0019 0.0226,0.01292 0,0.0148 0.0126,0.02692 0.0279,0.02692 0.0154,0 0.0673,0.01866 0.1153,0.04146 0.048,0.0228 0.0921,0.03676 0.0978,0.03101 0.006,-0.0057 0.0171,-0.278914 0.0252,-0.607041 0.0201,-0.813435 0.0886,-2.059598 0.11661,-2.121768 0.0126,-0.02796 0.026,-0.113752 0.0297,-0.190646 l 0.007,-0.139808 0.11862,-0.0077 c 0.10228,-0.0066 0.12098,-2.04e-4 0.13581,0.04653 0.0289,0.09092 0.0199,0.536852 -0.0251,1.257523 -0.051,0.81538 -0.0348,1.963336 0.0281,1.98746 0.0501,0.01922 0.0451,0.135072 -0.006,0.135072 -0.0366,0 -0.0391,0.05179 -0.0248,0.502035 0.009,0.27612 0.0185,0.894183 0.0217,1.373473 0.006,0.972282 0.015,0.926783 -0.17197,0.914563 -0.079,-0.0052 -0.10323,-0.01786 -0.10948,-0.05747 -0.004,-0.02796 -0.0239,-0.08516 -0.0434,-0.127098 -0.074,-0.159582 -0.10161,-0.612531 -0.0985,-1.615377 l 0.003,-0.979888 -0.2592,-0.03079 c -0.38744,-0.04602 -0.94531,-0.221992 -1.07036,-0.337634 -0.0289,-0.02669 -0.0608,-0.04853 -0.071,-0.04853 -0.0102,0 -0.0323,-0.01127 -0.0492,-0.02504 -0.0169,-0.01377 -0.0695,-0.05622 -0.117,-0.09433 l -0.0863,-0.0693 0.0157,0.113398 c 0.009,0.06237 0.0279,0.302138 0.0429,0.532821 0.0149,0.230682 0.038,0.470897 0.0513,0.53381 0.0221,0.10447 0.0606,0.605432 0.12707,1.65227 0.0383,0.602204 0.0459,0.653916 0.0992,0.667839 0.0344,0.009 0.0534,0.05388 0.0747,0.176235 0.0157,0.09029 0.0286,0.200865 0.0286,0.245723 0,0.136541 -0.15775,0.307905 -0.26691,0.28994 z m -7.2954,-0.08396 c -0.5161,-0.03669 -0.94529,-0.168106 -1.32482,-0.405653 -0.30093,-0.188356 -0.54025,-0.415501 -0.65663,-0.623215 -0.0989,-0.176512 -0.15205,-0.412692 -0.11488,-0.510459 0.0136,-0.03563 0.0246,-0.106977 0.0246,-0.158539 0,-0.133938 0.14884,-0.622 0.20295,-0.665528 0.009,-0.007 0.0432,-0.05846 0.0767,-0.114388 0.15117,-0.252263 0.63728,-0.767212 0.87407,-0.925924 0.0328,-0.02201 0.1327,-0.09497 0.22192,-0.162141 0.35385,-0.266409 0.68175,-0.368569 1.07631,-0.335336 0.24556,0.02068 0.37148,0.07984 0.4624,0.21723 0.0668,0.100981 0.0673,0.104968 0.0509,0.42844 -0.0132,0.261263 -0.0296,0.361301 -0.0821,0.500613 -0.0617,0.163958 -0.1333,0.312127 -0.16459,0.340667 -0.0259,0.02363 -0.13833,0.189973 -0.17747,0.262594 -0.10677,0.198085 -0.5112,0.578624 -0.74249,0.698619 -0.11955,0.06202 -0.15731,0.06828 -0.41228,0.06828 -0.37181,0 -0.48897,-0.0355 -0.63602,-0.192714 -0.13269,-0.141855 -0.14617,-0.223183 -0.0525,-0.316832 0.0821,-0.08207 0.14922,-0.07871 0.29486,0.01475 0.20044,0.128625 0.49896,0.148068 0.68982,0.04493 0.23846,-0.128856 0.72762,-0.694932 0.87931,-1.017571 0.10564,-0.224694 0.1714,-0.658807 0.11314,-0.746869 -0.0768,-0.116089 -0.40685,-0.154321 -0.66447,-0.07697 -0.23527,0.07064 -0.68873,0.359485 -0.68873,0.438706 0,0.01929 -0.0143,0.03512 -0.0318,0.03518 -0.0175,5.1e-5 -0.0805,0.05439 -0.14014,0.120743 -0.0596,0.06635 -0.14139,0.154958 -0.18176,0.1969 -0.0955,0.09922 -0.28174,0.372244 -0.28178,0.413067 -2e-5,0.01748 -0.0104,0.03177 -0.023,0.03177 -0.0387,0 -0.17149,0.406862 -0.20549,0.629714 -0.0725,0.475049 0.0321,0.65446 0.56496,0.969203 0.36413,0.215072 0.81849,0.312146 1.45796,0.311491 0.43182,-4.42e-4 0.7564,-0.03326 0.92811,-0.09384 0.15978,-0.05637 0.68403,-0.320464 0.75771,-0.381694 0.0362,-0.03007 0.11154,-0.08355 0.16747,-0.118838 0.1605,-0.101283 0.4492,-0.378308 0.43441,-0.416846 -0.007,-0.01887 -4.7e-4,-0.03159 0.0151,-0.02826 0.046,0.0099 0.21854,-0.235446 0.29074,-0.413373 0.0847,-0.208737 0.11739,-0.66648 0.0695,-0.974067 -0.0308,-0.198084 -0.0574,-0.259249 -0.15889,-0.36575 -0.0294,-0.03087 -0.0535,-0.06307 -0.0535,-0.07155 0,-0.0085 -0.0343,-0.04429 -0.0762,-0.07958 -0.0649,-0.05462 -0.0763,-0.08203 -0.0763,-0.18425 0,-0.09839 0.0129,-0.132424 0.0713,-0.188387 0.0886,-0.0849 0.1836,-0.08793 0.52886,-0.01689 0.13743,0.02828 0.26378,0.04608 0.28077,0.03956 0.017,-0.0065 0.0345,-0.0032 0.0389,0.0073 0.004,0.01053 0.11095,0.03815 0.23678,0.0614 0.1963,0.03626 0.37741,0.08151 0.79436,0.198472 0.0454,0.01275 0.1252,0.03398 0.17725,0.0472 0.15573,0.03953 0.2005,0.138392 0.10562,0.233269 -0.0524,0.05246 -0.0683,0.05355 -0.57829,0.0399 -0.32534,-0.0087 -0.58698,-0.02847 -0.68935,-0.05206 -0.0907,-0.02091 -0.16701,-0.03599 -0.1695,-0.03351 -0.002,0.0025 0.0126,0.06741 0.0336,0.144286 0.0682,0.25026 0.0426,1.083663 -0.0394,1.283653 -0.0356,0.08679 -0.21772,0.456855 -0.23145,0.470261 -0.007,0.007 -0.0645,0.08106 -0.12734,0.164597 -0.13244,0.17596 -0.39796,0.442691 -0.54576,0.548254 -0.46553,0.332487 -0.81426,0.517659 -1.17044,0.621481 -0.17579,0.05124 -0.3219,0.07187 -0.63504,0.08965 -0.44192,0.02509 -0.4191,0.02512 -0.788,-0.0011 z m 23.20392,-0.328068 c -0.0582,-0.0095 -0.1892,-0.05087 -0.29113,-0.09191 -0.22009,-0.0886 -0.45366,-0.289819 -0.51533,-0.443957 -0.0223,-0.05576 -0.0461,-0.101388 -0.0528,-0.101388 -0.007,0 -0.0289,0.03146 -0.0491,0.0699 -0.0203,0.03845 -0.12047,0.155694 -0.22264,0.26055 l -0.18575,0.190647 -0.22922,0.0084 c -0.20621,0.0076 -0.23783,0.0024 -0.31506,-0.05084 -0.0472,-0.03258 -0.11149,-0.107731 -0.14283,-0.167007 -0.0314,-0.05928 -0.0685,-0.122189 -0.0825,-0.139808 -0.0567,-0.07138 -0.19062,-1.236263 -0.17749,-1.544495 0.001,-0.03495 -4.8e-4,-0.155059 -0.004,-0.266905 -0.006,-0.165093 -0.0113,-0.189149 -0.0296,-0.127846 -0.0124,0.04153 -0.0245,0.121602 -0.027,0.177936 -0.0122,0.282427 -0.12974,1.062844 -0.19592,1.300767 -0.0622,0.223556 -0.11192,0.302321 -0.21324,0.33764 -0.11826,0.04123 -0.15231,0.03439 -0.25658,-0.05156 -0.15018,-0.12379 -0.23545,-0.336719 -0.35016,-0.874352 -0.0181,-0.08502 -0.0369,-0.130019 -0.0423,-0.101678 -0.0259,0.134998 -0.22667,0.768092 -0.25788,0.813425 -0.01,0.01398 -0.0329,0.07117 -0.0518,0.127098 -0.0189,0.05592 -0.0423,0.107397 -0.052,0.114388 -0.01,0.007 -0.0501,0.0699 -0.0897,0.139807 -0.10148,0.179127 -0.13756,0.216259 -0.26251,0.270199 -0.2066,0.08918 -0.46951,0.05269 -0.62006,-0.08607 -0.0492,-0.04535 -0.11697,-0.106945 -0.1506,-0.136885 -0.0336,-0.02994 -0.11114,-0.138608 -0.17223,-0.241486 -0.0611,-0.102877 -0.11796,-0.192768 -0.12638,-0.199759 -0.008,-0.007 -0.0342,-0.05275 -0.0573,-0.101678 -0.0231,-0.04893 -0.0717,-0.151268 -0.10803,-0.227412 -0.0363,-0.07614 -0.066,-0.153356 -0.066,-0.171582 0,-0.05832 -0.0512,-0.03548 -0.0779,0.03475 -0.0366,0.09636 -0.19719,0.309201 -0.25766,0.341562 -0.028,0.01501 -0.11987,0.03702 -0.20405,0.04892 -0.19011,0.02687 -0.32408,-0.01729 -0.45014,-0.148371 -0.048,-0.04997 -0.0909,-0.08011 -0.0953,-0.06697 -0.004,0.01313 -0.005,0.02986 -0.002,0.03718 0.003,0.0073 -0.0385,0.06179 -0.0933,0.121057 -0.1409,0.152284 -0.25917,0.182701 -0.61292,0.157634 -0.28382,-0.02011 -0.35873,-0.04182 -0.58378,-0.169153 -0.0699,-0.03955 -0.18632,-0.09045 -0.25869,-0.113114 -0.14358,-0.04496 -0.34463,-0.190002 -0.43389,-0.313028 -0.0311,-0.0429 -0.0923,-0.149828 -0.13595,-0.237626 l -0.0794,-0.159633 0.0112,-0.374177 c 0.01,-0.333937 0.019,-0.394326 0.0831,-0.561524 0.0778,-0.203002 0.26939,-0.449499 0.42085,-0.54161 0.10755,-0.0654 0.4131,-0.08969 0.61093,-0.04857 0.17444,0.03626 0.41125,0.173473 0.61033,0.353625 l 0.15011,0.135842 7.6e-4,-0.364361 c 0.001,-0.528167 0.0431,-1.4176 0.0756,-1.602876 0.10474,-0.596355 0.30774,-0.882532 0.49874,-0.703101 l 0.0573,0.05382 -0.0517,0.130473 c -0.0284,0.07176 -0.0756,0.284897 -0.10489,0.473637 -0.0478,0.307838 -0.0526,0.436059 -0.0469,1.245557 0.007,0.929312 0.0294,1.192213 0.14292,1.639561 0.036,0.14207 0.0579,0.203908 0.15907,0.450627 0.0214,0.05212 0.0623,0.102197 0.091,0.111294 0.0734,0.0233 0.14491,-0.06924 0.32609,-0.422114 0.0678,-0.132027 0.0998,-0.3262 0.12158,-0.737166 0.0171,-0.323708 0.0285,-0.390158 0.0935,-0.545778 0.0502,-0.120348 0.0959,-0.189497 0.14229,-0.215544 0.0631,-0.03539 0.0738,-0.03422 0.1394,0.01507 l 0.0711,0.05343 -0.008,0.624509 c -0.01,0.731482 -0.0105,0.727913 0.28114,1.364709 0.0843,0.184163 0.30348,0.53381 0.33457,0.53381 0.0157,0 0.042,0.02144 0.0583,0.04764 0.0164,0.0262 0.0607,0.0554 0.0985,0.06488 0.0572,0.01435 0.0808,0.0031 0.14068,-0.0667 0.0396,-0.04617 0.0796,-0.106826 0.089,-0.134788 0.009,-0.02796 0.0242,-0.05656 0.033,-0.06355 0.0668,-0.0531 0.3213,-0.720887 0.49604,-1.301306 0.0718,-0.238623 0.11353,-0.300125 0.20347,-0.300125 0.10182,0 0.22434,0.189496 0.25501,0.394402 0.0174,0.116238 0.079,0.367727 0.17738,0.724058 0.0212,0.07689 0.0599,0.181386 0.0859,0.232205 l 0.0473,0.0924 0.0539,-0.183214 c 0.0297,-0.100768 0.0775,-0.325368 0.1063,-0.499111 0.0288,-0.173742 0.0585,-0.344493 0.066,-0.379445 0.007,-0.03495 0.0301,-0.14362 0.0504,-0.241485 0.0399,-0.193047 0.069,-0.317949 0.1153,-0.495681 0.0196,-0.07514 0.0357,-0.546121 0.0469,-1.372655 0.0168,-1.239912 0.0179,-1.26039 0.0763,-1.403755 0.0587,-0.144216 0.11016,-0.187639 0.18717,-0.158086 0.0364,0.01398 0.0536,0.04624 0.12757,0.240024 0.0133,0.03495 0.0331,0.606892 0.0438,1.270977 0.0197,1.218183 0.0504,1.729779 0.15215,2.541954 0.0743,0.592898 0.17203,1.042202 0.22666,1.042202 0.0275,0 0.15071,-0.135751 0.23907,-0.263406 0.21708,-0.313623 0.52768,-0.786281 0.56553,-0.860588 0.0234,-0.04589 0.0806,-0.135816 0.12715,-0.199837 0.0466,-0.06402 0.0965,-0.144093 0.11104,-0.177937 0.0285,-0.0666 0.0813,-0.155515 0.10444,-0.175922 0.021,-0.01858 0.17625,-0.248754 0.17625,-0.26136 0,-0.009 0.1496,-0.254175 0.32489,-0.532469 0.0596,-0.09467 0.15618,-0.132632 0.24009,-0.0944 0.10689,0.0487 0.13245,0.124235 0.0954,0.282059 -0.033,0.140792 -0.0511,0.192976 -0.23681,0.682432 -0.23197,0.61139 -0.32123,0.965098 -0.32173,1.27482 -2.6e-4,0.108755 0.007,0.122535 0.0908,0.171903 0.05,0.02952 0.13296,0.06422 0.18429,0.07711 0.30376,0.07629 0.38992,0.103992 0.54689,0.175878 0.0957,0.04381 0.18903,0.07966 0.20745,0.07966 0.0527,0 0.16512,0.149748 0.16512,0.219972 0,0.09077 -0.1244,0.205136 -0.24401,0.224339 -0.0545,0.0088 -0.14711,0.02675 -0.20573,0.04 -0.11869,0.02682 -0.47181,0.02705 -0.6347,4.24e-4 z m -6.82799,-1.290665 c 0.11534,-0.17603 0.13807,-0.425551 0.0708,-0.777125 -0.041,-0.214426 -0.077,-0.299943 -0.16932,-0.402511 -0.0329,-0.03652 -0.0722,-0.08799 -0.0874,-0.114388 -0.0412,-0.07144 -0.31054,-0.282561 -0.44103,-0.345733 -0.0842,-0.04076 -0.16332,-0.05563 -0.30162,-0.0567 -0.17853,-0.0014 -0.19039,0.0022 -0.2486,0.07482 -0.0336,0.04194 -0.0612,0.105898 -0.0613,0.142123 0,0.03622 -0.0178,0.122016 -0.0394,0.190646 -0.0588,0.186496 -0.0867,0.406541 -0.0618,0.486477 0.0121,0.03874 0.0342,0.118062 0.0492,0.176268 0.0247,0.09603 0.095,0.200975 0.20825,0.311004 0.10824,0.105156 0.17074,0.155106 0.19409,0.155106 0.014,0 0.0314,0.0155 0.0387,0.03444 0.0179,0.04655 0.174,0.06909 0.27856,0.04022 0.0468,-0.01291 0.14161,-0.07524 0.21074,-0.138511 0.0691,-0.06327 0.14527,-0.12642 0.16918,-0.14034 0.0406,-0.02361 0.041,-0.0181 0.006,0.0818 -0.0208,0.05891 -0.0661,0.157743 -0.10068,0.219627 -0.0346,0.06188 -0.0629,0.116794 -0.0629,0.122023 0,0.0052 0.0684,0.0095 0.15193,0.0095 0.13709,0 0.15634,-0.0067 0.19699,-0.06876 z m -2.37107,1.142175 c -0.0549,-0.04625 -0.18935,-0.220803 -0.18935,-0.245856 0,-0.0081 -0.0213,-0.06317 -0.0473,-0.122439 -0.10792,-0.245807 -0.30688,-0.977755 -0.31035,-1.141752 -9.9e-4,-0.04645 -0.0116,-0.107341 -0.0236,-0.135303 -0.0213,-0.04959 -0.0219,-0.04951 -0.0236,0.0032 -0.002,0.07329 -0.13467,0.413167 -0.24853,0.63872 -0.12452,0.246682 -0.36462,0.538623 -0.49871,0.606399 -0.0724,0.03658 -0.17687,0.05841 -0.32878,0.06868 -0.24709,0.01671 -0.37383,-0.0133 -0.51686,-0.122395 l -0.0821,-0.06263 -0.0789,0.07373 c -0.12554,0.117272 -0.30669,0.228138 -0.40196,0.246013 -0.0483,0.0091 -0.19616,0.0042 -0.3286,-0.01088 -0.18656,-0.02119 -0.26757,-0.0434 -0.35974,-0.09862 -0.0654,-0.0392 -0.13162,-0.07699 -0.1471,-0.08398 -0.0155,-0.007 -0.0898,-0.08395 -0.16523,-0.171013 -0.12197,-0.140872 -0.18762,-0.248234 -0.3058,-0.500141 -0.0551,-0.117367 -0.0484,-1.151407 0.009,-1.336989 0.0954,-0.310513 0.13453,-0.401075 0.24166,-0.55923 0.1875,-0.276822 0.24371,-0.345212 0.37875,-0.460802 0.23263,-0.199138 0.27527,-0.226397 0.46993,-0.30036 0.12026,-0.0457 0.15338,-0.04731 0.42522,-0.02067 0.16213,0.01588 0.31241,0.04349 0.33394,0.06134 0.0215,0.01785 0.0792,0.05881 0.12812,0.09101 0.0489,0.03221 0.10897,0.09836 0.13341,0.147018 0.0486,0.09669 0.0596,0.266787 0.0189,0.291929 -0.0286,0.0177 -0.0395,-0.0078 -0.0625,-0.146273 -0.01,-0.05921 -0.0299,-0.09532 -0.0528,-0.09532 -0.0203,0 -0.037,-0.0091 -0.037,-0.02017 0,-0.04046 -0.27873,-0.07766 -0.47445,-0.06332 -0.25051,0.01835 -0.38071,0.08314 -0.56775,0.282546 -0.2453,0.261506 -0.38703,0.536193 -0.45918,0.88997 -0.0825,0.404598 -0.0529,1.067997 0.0525,1.173318 0.007,0.007 0.0352,0.05681 0.0626,0.110714 0.0982,0.192785 0.29694,0.312533 0.53471,0.322207 0.15313,0.0062 0.15329,0.0062 0.26482,-0.09611 l 0.10395,-0.09532 -0.0405,-0.127097 c -0.0813,-0.255012 0.0115,-1.636245 0.11536,-1.715819 0.009,-0.007 0.0546,-0.06638 0.10114,-0.131981 0.10063,-0.141949 0.12744,-0.154649 0.27947,-0.132403 0.25537,0.03737 0.30697,0.156599 0.30697,0.709328 0,0.338942 -0.0883,0.901393 -0.179,1.139988 -0.0651,0.171394 -0.0631,0.197543 0.0214,0.278543 0.0597,0.05721 0.1017,0.07072 0.26055,0.08383 0.18673,0.01541 0.19085,0.01444 0.2958,-0.0698 0.12762,-0.102437 0.26045,-0.272676 0.34589,-0.443299 0.0345,-0.0688 0.0941,-0.188011 0.1326,-0.264906 0.0385,-0.07689 0.0976,-0.214159 0.13134,-0.305034 0.0338,-0.09087 0.0788,-0.202988 0.10016,-0.249139 0.0213,-0.04615 0.0453,-0.126224 0.0532,-0.177937 0.035,-0.227315 0.14128,-0.296284 0.26535,-0.17222 0.0457,0.04568 0.0703,0.113067 0.0952,0.26055 0.0473,0.279758 0.22445,0.971286 0.27888,1.088622 0.013,0.02796 0.0669,0.176344 0.11991,0.329738 0.053,0.153394 0.12103,0.302098 0.15123,0.330454 0.0302,0.02835 0.0685,0.07738 0.0852,0.108955 0.032,0.06065 0.029,0.289197 -0.003,0.269114 -0.0105,-0.0065 -0.0191,5.1e-5 -0.0191,0.0145 0,0.03886 -0.13933,0.103916 -0.22115,0.103266 -0.0392,-3.1e-4 -0.0946,-0.02033 -0.12331,-0.04448 z m -2.09567,-2.146753 c 0.0191,-0.104031 0.0334,-0.409021 0.0267,-0.566218 -0.002,-0.0422 -0.006,-0.04436 -0.0265,-0.01271 -0.0606,0.09482 -0.14004,0.735909 -0.11007,0.887933 l 0.0179,0.09072 0.035,-0.139808 c 0.0193,-0.07689 0.0449,-0.193857 0.057,-0.259917 z m 2.16874,-1.450745 c -0.0661,-0.01514 -0.13803,-0.0572 -0.19064,-0.111524 -0.0764,-0.07885 -0.0844,-0.101448 -0.0836,-0.235429 7.6e-4,-0.132714 0.0101,-0.158469 0.089,-0.246369 0.1152,-0.128325 0.29396,-0.263384 0.40788,-0.308178 0.0795,-0.03124 0.10294,-0.03078 0.18521,0.0036 0.20122,0.08408 0.20856,0.338346 0.014,0.48456 -0.0547,0.04113 -0.0995,0.0841 -0.0995,0.09549 0,0.01139 0.0286,0.04558 0.0635,0.07597 0.0686,0.05961 0.0804,0.136405 0.031,0.200846 -0.0391,0.05098 -0.2728,0.07399 -0.41675,0.04104 z"
       id="path841"
       inkscape:connector-curvature="0" />
    <path
       style="fill:none;stroke:#000000;stroke-width:0.26458332px;stroke-linecap:butt;stroke-linejoin:miter;stroke-opacity:1"
       d="M 23.434524,76.999988 H 94.224075"
       id="path815"
       inkscape:connector-curvature="0"
       sodipodi:nodetypes="cc" />
    <path
       style="fill:none;stroke:#000000;stroke-width:0.26458332px;stroke-linecap:butt;stroke-linejoin:miter;stroke-opacity:1"
       d="m 115.49953,77.000707 h 70.78964"
       id="path815-2"
       inkscape:connector-curvature="0"
       sodipodi:nodetypes="cc" />
    <text
       xml:space="preserve"
       style="font-style:normal;font-weight:normal;font-size:5.25924253px;line-height:1.25;font-family:sans-serif;letter-spacing:0px;word-spacing:0px;fill:#000000;fill-opacity:1;stroke:none;stroke-width:0.26458332"
       x="24.373657"
       y="81.841331"
       id="text834"><tspan
         sodipodi:role="line"
         id="tspan832"
         x="24.373657"
         y="81.841331"
         style="stroke-width:0.26458332">{\small Ort, Datum}</tspan></text>
    <text
       id="text838"
       y="81.838936"
       x="116.02285"
       style="font-style:normal;font-weight:normal;font-size:5.25924253px;line-height:1.25;font-family:sans-serif;letter-spacing:0px;word-spacing:0px;fill:#000000;fill-opacity:1;stroke:none;stroke-width:0.26458332"
       xml:space="preserve"><tspan
         style="stroke-width:0.26458332"
         y="81.838936"
         x="116.02285"
         id="tspan836"
         sodipodi:role="line">{\small Unterschrift}</tspan></text>
  </g>
</svg>
