<?xml version="1.0" encoding="UTF-8" standalone="no"?>
<!-- Created with Inkscape (http://www.inkscape.org/) -->

<svg
   xmlns:dc="http://purl.org/dc/elements/1.1/"
   xmlns:cc="http://creativecommons.org/ns#"
   xmlns:rdf="http://www.w3.org/1999/02/22-rdf-syntax-ns#"
   xmlns:svg="http://www.w3.org/2000/svg"
   xmlns="http://www.w3.org/2000/svg"
   xmlns:sodipodi="http://sodipodi.sourceforge.net/DTD/sodipodi-0.dtd"
   xmlns:inkscape="http://www.inkscape.org/namespaces/inkscape"
   width="162.85464mm"
   height="24.794439mm"
   viewBox="0 0 162.85464 24.794439"
   version="1.1"
   id="svg8"
   inkscape:version="0.92.3 (2405546, 2018-03-11)"
   sodipodi:docname="selbstaendigkeitserklaerung.svg">
  <defs
     id="defs2" />
  <sodipodi:namedview
     id="base"
     pagecolor="#ffffff"
     bordercolor="#666666"
     borderopacity="1.0"
     inkscape:pageopacity="0.0"
     inkscape:pageshadow="2"
     inkscape:zoom="1.979899"
     inkscape:cx="327.05499"
     inkscape:cy="-9.795194"
     inkscape:document-units="mm"
     inkscape:current-layer="layer1"
     showgrid="false"
     inkscape:window-width="1920"
     inkscape:window-height="1001"
     inkscape:window-x="-9"
     inkscape:window-y="-9"
     inkscape:window-maximized="1"
     fit-margin-top="5"
     fit-margin-left="0"
     fit-margin-right="0"
     fit-margin-bottom="5" />
  <metadata
     id="metadata5">
    <rdf:RDF>
      <cc:Work
         rdf:about="">
        <dc:format>image/svg+xml</dc:format>
        <dc:type
           rdf:resource="http://purl.org/dc/dcmitype/StillImage" />
        <dc:title></dc:title>
      </cc:Work>
    </rdf:RDF>
  </metadata>
  <g
     inkscape:label="Layer 1"
     inkscape:groupmode="layer"
     id="layer1"
     transform="translate(-23.434524,-63.053545)">
    <path
       style="fill:none;stroke:#000000;stroke-width:0.26458332px;stroke-linecap:butt;stroke-linejoin:miter;stroke-opacity:1"
       d="M 23.434524,76.999988 H 94.224075"
       id="path815"
       inkscape:connector-curvature="0"
       sodipodi:nodetypes="cc" />
    <path
       style="fill:none;stroke:#000000;stroke-width:0.26458332px;stroke-linecap:butt;stroke-linejoin:miter;stroke-opacity:1"
       d="m 115.49953,77.000707 h 70.78964"
       id="path815-2"
       inkscape:connector-curvature="0"
       sodipodi:nodetypes="cc" />
    <text
       xml:space="preserve"
       style="font-style:normal;font-weight:normal;font-size:5.25924253px;line-height:1.25;font-family:sans-serif;letter-spacing:0px;word-spacing:0px;fill:#000000;fill-opacity:1;stroke:none;stroke-width:0.26458332"
       x="24.373657"
       y="81.841331"
       id="text834"><tspan
         sodipodi:role="line"
         id="tspan832"
         x="24.373657"
         y="81.841331"
         style="stroke-width:0.26458332">{\small Ort, Datum}</tspan></text>
    <text
       id="text838"
       y="81.838936"
       x="116.02285"
       style="font-style:normal;font-weight:normal;font-size:5.25924253px;line-height:1.25;font-family:sans-serif;letter-spacing:0px;word-spacing:0px;fill:#000000;fill-opacity:1;stroke:none;stroke-width:0.26458332"
       xml:space="preserve"><tspan
         style="stroke-width:0.26458332"
         y="81.838936"
         x="116.02285"
         id="tspan836"
         sodipodi:role="line">{\small Unterschrift}</tspan></text>
    <path
       style="display:inline;fill:#000000;stroke-width:1"
       d="m 48.913456,77.308223 c -0.106627,-0.106627 0.0465,-0.554743 0.512058,-1.498531 0.34961,-0.708733 0.374275,-0.745365 0.475679,-0.706452 0.12255,0.04703 0.03899,0.653772 -0.157104,1.140755 -0.317252,0.787872 -0.663442,1.231419 -0.830633,1.064228 z M 79.18873,76.42598 c -0.02717,-0.01 -0.140317,-0.04147 -0.251437,-0.06997 -0.239551,-0.06146 -0.59373,-0.395051 -0.639189,-0.60204 -0.07159,-0.325969 0.146289,-0.45614 0.368174,-0.219958 0.194506,0.207043 0.343695,0.237658 1.050912,0.215659 0.760422,-0.02365 1.060945,-0.113472 1.475157,-0.440889 0.490153,-0.387444 0.839367,-1.170313 1.010615,-2.265605 l 0.03475,-0.22231 -0.141231,0.133235 c -0.156728,0.147848 -0.453037,0.286683 -0.611865,0.286683 -0.05681,0 -0.190919,0.07042 -0.298023,0.156495 -0.150845,0.121222 -0.25573,0.161552 -0.465339,0.178934 -0.256599,0.02128 -0.279601,0.01344 -0.444594,-0.151553 -0.167666,-0.167666 -0.17397,-0.187204 -0.173357,-0.537101 0.0011,-0.652974 0.279483,-1.30286 0.787149,-1.837917 0.348473,-0.367273 0.468801,-0.427423 0.852379,-0.426086 0.378361,0.0013 0.648053,0.113553 0.864078,0.359592 0.209826,0.23898 0.253557,0.535201 0.147075,0.996268 -0.04413,0.191086 -0.08954,0.636431 -0.100899,0.989657 -0.06119,1.902284 -0.902898,3.139058 -2.320107,3.409075 -0.348443,0.06639 -1.017545,0.09436 -1.144252,0.04783 z m 2.422962,-4.14829 c 0.738627,-0.740702 0.811648,-0.85896 0.637762,-1.032844 -0.109752,-0.109751 -0.435756,-0.196339 -0.591778,-0.15718 -0.170981,0.04291 -0.508284,0.394483 -0.678459,0.707149 -0.154338,0.283571 -0.283722,0.744938 -0.283722,1.011727 0,0.330587 0.139428,0.250107 0.916197,-0.528852 z M 47.69487,76.352941 c -0.941099,-0.152687 -1.394697,-0.738317 -1.507948,-1.946877 l -0.03601,-0.384312 -0.302516,0.293257 c -0.688495,0.667422 -0.938572,0.795772 -1.180183,0.60572 -0.159959,-0.125823 -0.171892,-0.287688 -0.06012,-0.815392 0.04028,-0.190188 0.07325,-0.355878 0.07325,-0.368199 0,-0.01232 -0.101191,0.132171 -0.224869,0.321095 -0.303117,0.463029 -0.669882,0.828711 -1.073038,1.069874 -0.331004,0.198001 -0.338778,0.199887 -0.730526,0.17721 -0.337023,-0.01951 -0.426587,-0.04445 -0.601706,-0.167525 -0.283169,-0.199019 -0.387525,-0.400292 -0.426992,-0.823545 l -0.0333,-0.357135 -0.03585,0.243011 c -0.01972,0.133656 -0.09134,0.337693 -0.159158,0.453416 -0.07788,0.132897 -0.123306,0.285955 -0.123306,0.415493 0,0.20068 0.0031,0.20441 0.143504,0.173569 0.176176,-0.03869 0.222369,0.0244 0.143919,0.196578 -0.06673,0.146451 -0.272741,0.271709 -0.446884,0.271709 -0.150094,0 -0.329341,-0.128047 -0.385306,-0.275247 l -0.04451,-0.117069 -0.261135,0.121572 c -0.222491,0.103581 -0.334244,0.121603 -0.755157,0.121779 -0.607523,2.47e-4 -0.835948,-0.05958 -1.051891,-0.27552 -0.158866,-0.158865 -0.166188,-0.18162 -0.145407,-0.451877 0.0288,-0.374594 0.212789,-1.080388 0.336128,-1.289432 0.174333,-0.295473 0.510125,-0.658053 0.69838,-0.754093 0.222535,-0.113529 0.732905,-0.124824 1.109497,-0.02455 l 0.255078,0.06791 0.05357,-0.401966 c 0.02946,-0.221081 0.08416,-0.66447 0.121551,-0.985307 0.06344,-0.544363 0.08065,-0.601729 0.257524,-0.858548 l 0.189542,-0.275208 0.04097,0.142218 c 0.07278,0.252645 0.06375,0.762952 -0.03154,1.783093 -0.08663,0.927434 -0.08751,1.007456 -0.01235,1.12216 0.04451,0.06793 0.08093,0.195434 0.08093,0.283338 0,0.210017 0.06422,0.127362 0.140661,-0.18105 0.102891,-0.415103 0.397988,-0.987785 0.618215,-1.199743 0.33231,-0.31983 0.768781,-0.391872 1.091818,-0.18021 0.129884,0.0851 0.134577,0.102744 0.117471,0.441498 -0.0144,0.28525 -0.0527,0.423148 -0.199868,0.719757 -0.206407,0.415995 -0.640695,0.888103 -0.937359,1.018991 -0.131199,0.05788 -0.188479,0.114237 -0.187954,0.184906 0.0016,0.21948 0.181095,0.323957 0.556461,0.323957 0.478258,0 0.977562,-0.407741 1.542648,-1.259754 0.354465,-0.534448 0.56785,-0.968362 0.56785,-1.154711 0,-0.290402 0.274369,-0.429654 0.39659,-0.201283 0.07181,0.134185 0.05757,1.047874 -0.02418,1.551563 -0.03951,0.243419 -0.06396,0.450453 -0.05434,0.460076 0.0096,0.0096 0.158747,-0.112307 0.331386,-0.270954 0.576291,-0.529581 0.682249,-0.607001 0.830748,-0.607001 0.232266,0 0.320305,0.168508 0.417442,0.798991 0.175687,1.140331 0.355529,1.439167 0.980308,1.628938 0.342374,0.103993 0.371744,0.105257 0.78902,0.03397 0.238375,-0.04073 0.433409,-0.05443 0.433409,-0.03046 0,0.193823 -0.350734,0.556663 -0.579292,0.599287 -0.310254,0.05786 -0.49444,0.06623 -0.705163,0.03204 z m -7.291747,-1.31306 0.260559,-0.127584 0.08016,-0.84598 c 0.04409,-0.465289 0.0717,-0.854439 0.06136,-0.864779 -0.04835,-0.04835 -0.42669,-0.106722 -0.6986,-0.107784 -0.353902,-0.0014 -0.554333,0.107913 -0.769107,0.419402 -0.205658,0.298269 -0.287994,0.590341 -0.287994,1.021607 0,0.383761 0.0014,0.387998 0.160557,0.485036 0.252973,0.154241 0.500887,0.128837 0.786137,-0.08056 0.133981,-0.09835 0.256772,-0.165649 0.27287,-0.149551 0.0161,0.0161 -0.03054,0.107681 -0.103641,0.20352 -0.158353,0.207612 -0.110266,0.217053 0.237704,0.04667 z m 2.042446,-1.335603 c 0.213137,-0.162567 0.485919,-0.585248 0.609491,-0.944417 0.05215,-0.151568 0.09481,-0.283215 0.09481,-0.292547 0,-0.0093 -0.07365,-0.01697 -0.163664,-0.01697 -0.260201,0 -0.473514,0.275504 -0.6816,0.880316 -0.09362,0.2721 -0.121609,0.502944 -0.06099,0.502944 0.01781,0 0.108691,-0.0582 0.201948,-0.129329 z m 86.356031,2.537683 -0.15001,-0.160557 0.032,-1.012744 c 0.0176,-0.557009 0.0447,-1.091007 0.0602,-1.186664 0.0279,-0.172133 0.0258,-0.17456 -0.20489,-0.236248 -0.12817,-0.03428 -0.23677,-0.05606 -0.24132,-0.04839 -0.005,0.0077 -0.15953,0.197856 -0.34438,0.422645 -0.58449,0.710746 -1.38784,1.341287 -2.0821,1.634208 -0.45844,0.193422 -0.64221,0.216707 -1.27289,0.161286 -0.6285,-0.05523 -0.95766,-0.189418 -1.24512,-0.507602 -0.31288,-0.346324 -0.38763,-0.580396 -0.34895,-1.092784 0.0704,-0.932191 0.5691,-1.735957 1.2986,-2.092868 0.25257,-0.12357 0.29417,-0.128747 0.85053,-0.105834 0.65884,0.02713 0.93649,0.121859 1.16975,0.39908 0.12031,0.142973 0.1287,0.182122 0.10768,0.502522 -0.0293,0.445958 -0.19561,0.780118 -0.53699,1.07876 -0.28623,0.250379 -0.5237,0.330856 -0.9763,0.330856 -0.23952,0 -0.35398,-0.03116 -0.608,-0.165534 -0.24966,-0.132059 -0.31611,-0.192058 -0.3286,-0.296693 -0.0225,-0.188004 0.10612,-0.215906 0.37906,-0.08227 0.3658,0.179107 0.50176,0.204685 0.78158,0.147047 0.49409,-0.101771 0.82887,-0.472108 0.88949,-0.983952 0.0262,-0.221355 0.0182,-0.244944 -0.11167,-0.330086 -0.11167,-0.07318 -0.25506,-0.09465 -0.71024,-0.106339 -0.55674,-0.0143 -0.57639,-0.01111 -0.82417,0.133698 -0.47122,0.275384 -0.85793,1.042773 -0.85753,1.701679 4.9e-4,0.644046 0.4529,0.966137 1.36176,0.96928 0.81397,0.0028 1.63426,-0.433554 2.52512,-1.343298 0.44519,-0.454621 0.45313,-0.4669 0.42715,-0.66061 -0.0305,-0.227179 0.0373,-0.310679 0.29284,-0.360849 0.14357,-0.02819 0.18705,-0.08281 0.41765,-0.524771 0.4194,-0.803809 0.49411,-1.086677 0.60653,-2.296488 0.0543,-0.58418 0.0989,-1.212919 0.0991,-1.397197 0,-0.184278 0.0326,-0.412145 0.0719,-0.506372 0.0599,-0.14329 0.0967,-0.17132 0.22483,-0.17132 0.12817,0 0.16495,0.02803 0.22482,0.17132 0.0394,0.09423 0.0716,0.259905 0.0716,0.368174 0,0.247115 -0.22485,2.7351 -0.32181,3.560882 -0.11125,0.947393 -0.13259,0.87333 0.26006,0.902512 0.29235,0.02173 0.34259,0.01262 0.40756,-0.07384 0.24911,-0.33153 0.55425,-0.611196 0.81433,-0.746363 0.26328,-0.136821 0.34102,-0.153778 0.68073,-0.148466 0.33045,0.0052 0.40652,0.02355 0.54992,0.132937 0.19965,0.152276 0.25233,0.325087 0.17317,0.568069 -0.12672,0.388948 -0.61406,0.955358 -0.98468,1.144437 -0.27653,0.141072 -0.77471,0.162163 -0.85602,0.03624 -0.0945,-0.14632 0.0228,-0.248174 0.39233,-0.340599 0.30609,-0.07657 0.36883,-0.114401 0.60096,-0.362409 0.29385,-0.313955 0.42851,-0.542526 0.38555,-0.654462 -0.0234,-0.06106 -0.0835,-0.07086 -0.29833,-0.04868 -0.291,0.03003 -0.71255,0.27111 -0.87819,0.502219 -0.0841,0.117368 -0.0837,0.123474 0.0123,0.174873 0.14891,0.07969 0.12129,0.14798 -0.094,0.232569 -0.18552,0.07287 -0.19579,0.08879 -0.24701,0.382939 -0.0771,0.442921 -0.0667,0.611582 0.0497,0.799788 0.2845,0.460325 1.24013,0.643663 2.14915,0.412314 0.63137,-0.160687 1.94693,-0.727616 1.94693,-0.839014 0,-0.02034 -0.0889,-0.315142 -0.19761,-0.655107 -0.23851,-0.746075 -0.24787,-0.910221 -0.0618,-1.082878 0.2054,-0.190538 0.41672,-0.239308 1.1733,-0.270787 0.68112,-0.02834 2.26407,0.04721 2.68609,0.128204 0.40168,0.07709 0.40168,0.322878 0,0.403159 -0.11879,0.02374 -0.63837,0.05499 -1.15462,0.06945 -1.63888,0.04589 -2.14894,0.07927 -2.14966,0.140656 -7.4e-4,0.06472 0.20651,0.885709 0.23161,0.917394 0.009,0.01143 0.0678,-0.02748 0.1306,-0.08645 0.1381,-0.129742 0.28068,-0.139962 0.28068,-0.02012 0,0.04791 -0.0752,0.198825 -0.16718,0.335363 -0.16022,0.237924 -0.16531,0.259474 -0.12229,0.518063 0.0247,0.148397 0.0308,0.403198 0.0137,0.566225 -0.0649,0.616045 -0.41514,0.630296 -0.49015,0.01994 -0.0481,-0.391409 -0.0802,-0.427875 -0.26237,-0.298152 -0.26433,0.188216 -1.00993,0.536513 -1.44179,0.673507 -0.29911,0.09488 -0.56916,0.140662 -0.93864,0.15912 -1.01202,0.05055 -1.65783,-0.160283 -2.03901,-0.665671 l -0.20879,-0.276818 v -0.584064 -0.584064 l -0.25633,1.7e-5 -0.25634,1.7e-5 -0.0259,0.209959 c -0.0142,0.115478 -0.0379,0.309999 -0.0527,0.432269 -0.0147,0.12227 -0.0382,0.484796 -0.0521,0.805613 -0.0204,0.471456 -0.0109,0.603814 0.0496,0.690272 0.0785,0.112104 0.0991,0.3676 0.0371,0.460454 -0.0445,0.06663 -0.23129,0.167953 -0.30964,0.167953 -0.0316,0 -0.12503,-0.07225 -0.20755,-0.160557 z m 0.0602,-3.359345 c -5.9e-4,-0.08988 -0.01,-0.09698 -0.0486,-0.03705 -0.0619,0.09578 -0.0619,0.148207 0,0.148207 0.0272,0 0.0491,-0.05002 0.0486,-0.111155 z M 35.483008,76.21726 c -0.201634,-0.234771 -0.11743,-0.513076 0.226915,-0.749991 0.234632,-0.161432 0.268404,-0.14779 0.169812,0.0686 -0.03158,0.06932 -0.04591,0.137561 -0.03182,0.151643 0.05228,0.05228 0.89317,-0.272531 1.189935,-0.459637 0.359507,-0.226664 0.444841,-0.356994 0.406416,-0.620713 -0.02789,-0.191441 -0.198428,-0.575942 -0.255442,-0.575942 -0.01693,0 -0.211003,0.172433 -0.431264,0.383183 -0.446726,0.427435 -0.827719,0.69468 -1.178006,0.826305 -0.318535,0.119693 -1.141599,0.08507 -1.475352,-0.06206 -0.29221,-0.128818 -0.584257,-0.385993 -0.669203,-0.589297 -0.286678,-0.686118 0.292495,-2.038878 1.030353,-2.406568 0.39704,-0.197853 0.758425,-0.149737 1.021924,0.136065 0.104042,0.112848 0.11489,0.160647 0.09037,0.398213 -0.03439,0.333199 -0.136722,0.555015 -0.387471,0.839882 -0.256855,0.291801 -0.566377,0.414715 -0.851672,0.338206 -0.112484,-0.03017 -0.24342,-0.06985 -0.29097,-0.08818 -0.07685,-0.02963 -0.08645,0.0021 -0.08645,0.28541 0,0.357643 0.0419,0.420916 0.372324,0.562239 0.1366,0.05842 0.3377,0.08436 0.66512,0.08578 0.436116,0.0019 0.49204,-0.0096 0.790435,-0.161969 0.254617,-0.130043 0.91907,-0.544581 1.208216,-0.753781 0.02677,-0.01937 -0.05261,-0.180125 -0.183104,-0.370784 -0.268851,-0.392807 -0.333551,-0.547477 -0.333298,-0.796772 2.47e-4,-0.258493 0.152466,-0.47548 0.454531,-0.647997 0.363371,-0.20753 0.816169,-0.299852 1.259581,-0.256819 0.620244,0.06019 0.561941,0.174776 -0.214948,0.422443 -0.321975,0.102644 -0.65766,0.230696 -0.745966,0.284559 -0.241722,0.147441 -0.214246,0.284542 0.166517,0.830907 0.478298,0.686321 0.61161,1.001169 0.611382,1.443928 -1.98e-4,0.431645 -0.07731,0.583118 -0.444419,0.873304 -0.665838,0.526315 -1.856898,0.874783 -2.08444,0.609845 z m -0.699444,-2.785631 c 0.17231,-0.104038 0.35532,-0.443522 0.375147,-0.6959 0.01249,-0.159001 0.0088,-0.162126 -0.209592,-0.175944 -0.188135,-0.0119 -0.251317,0.01 -0.411009,0.14229 -0.205162,0.169997 -0.381302,0.42366 -0.466372,0.671632 -0.04604,0.134214 -0.04177,0.160957 0.02879,0.180054 0.149843,0.04056 0.524561,-0.02644 0.68304,-0.122132 z m 85.663716,2.671762 c -0.24187,-0.190252 -0.32068,-0.630678 -0.37111,-2.073854 l -0.0319,-0.912261 -0.24701,-0.02658 c -0.3826,-0.04117 -0.56812,-0.183922 -0.56812,-0.437172 0,-0.210474 0.1199,-0.360613 0.4015,-0.502763 0.15561,-0.07856 0.29694,-0.165486 0.31405,-0.193183 0.0171,-0.0277 -0.0174,-0.471224 -0.0767,-0.985616 -0.0593,-0.514392 -0.0936,-0.992087 -0.0762,-1.061544 0.0349,-0.139232 0.24278,-0.2231 0.36375,-0.146788 0.10329,0.06515 0.20858,0.395729 0.14599,0.458325 -0.0339,0.03393 -0.0238,0.214636 0.0313,0.558794 0.0448,0.279755 0.10634,0.775416 0.1367,1.10147 0.0304,0.326054 0.0632,0.601451 0.0729,0.611993 0.0403,0.0436 0.51882,-0.11867 0.93447,-0.316862 0.55317,-0.263767 0.84303,-0.483516 1.18561,-0.898842 0.39461,-0.478404 0.47611,-0.682313 0.47423,-1.186571 -0.001,-0.367804 -0.0189,-0.45019 -0.14322,-0.672974 -0.16664,-0.298587 -0.4608,-0.516823 -0.87023,-0.645604 -0.39405,-0.123945 -1.52126,-0.08884 -2.22698,0.06937 -0.86752,0.194467 -1.57871,0.518785 -1.9894,0.9072 -0.46472,0.43951 -0.50967,0.655847 -0.23398,1.126235 0.0951,0.162262 0.17291,0.305321 0.17291,0.317909 0,0.04953 -0.6339,-0.478643 -0.66184,-0.551453 -0.0164,-0.0427 -0.0298,-0.188191 -0.0298,-0.323316 0,-0.758526 1.24799,-1.624491 2.77016,-1.922182 0.7102,-0.138894 1.84463,-0.1756 2.20581,-0.07137 0.4338,0.125188 0.73271,0.309258 1.04594,0.644102 0.22502,0.240546 0.30168,0.365575 0.36709,0.598702 0.14826,0.528394 0.0719,1.15897 -0.18892,1.56047 -0.62313,0.959145 -1.35972,1.520054 -2.38355,1.815072 l -0.40735,0.117378 0.0276,0.793634 c 0.0342,0.983674 0.10148,1.616497 0.19601,1.842758 0.0928,0.222157 0.0915,0.332707 -0.005,0.42941 -0.10333,0.103332 -0.17972,0.09788 -0.33452,-0.02389 z m -0.42769,-3.727147 c 0,-0.0951 -0.0122,-0.172907 -0.0271,-0.172907 -0.0375,0 -0.26586,0.263277 -0.26778,0.308763 -8.4e-4,0.02038 0.0651,0.03705 0.14665,0.03705 0.13644,0 0.1482,-0.01372 0.1482,-0.172907 z m 39.19211,3.379179 c -0.25597,-0.0741 -0.76907,-0.449254 -0.85327,-0.623888 -0.0423,-0.08769 -0.0886,-0.15994 -0.10291,-0.160557 -0.0143,-6.18e-4 -0.14723,0.08994 -0.29535,0.201242 -0.37906,0.284818 -0.6342,0.404994 -0.87142,0.410451 -0.23906,0.0055 -0.39128,-0.106089 -0.4386,-0.321525 -0.0283,-0.128907 -0.0511,-0.143084 -0.23005,-0.143084 -0.15976,0 -0.22907,-0.03164 -0.35424,-0.161743 -0.0856,-0.08896 -0.17785,-0.200515 -0.20502,-0.247902 -0.043,-0.07494 -0.0783,-0.05026 -0.27171,0.189558 -0.27578,0.342028 -0.50363,0.467158 -0.85022,0.466913 -0.38036,-2.47e-4 -0.75837,-0.265549 -0.88758,-0.622885 -0.0738,-0.204114 -0.10967,-0.208376 -0.21749,-0.02585 -0.11147,0.188711 -0.31617,0.303109 -0.54237,0.303109 -0.15477,0 -0.22862,0.04105 -0.44931,0.249772 -0.14525,0.137375 -0.36711,0.295339 -0.49301,0.351032 -0.29285,0.129544 -0.75564,0.130851 -0.97497,0.0028 -0.18581,-0.108514 -0.37706,-0.378381 -0.37706,-0.532045 0,-0.08322 -0.067,-0.149272 -0.26411,-0.260537 -0.30945,-0.174642 -0.6456,-0.536992 -0.72701,-0.783654 -0.0342,-0.10369 -0.0496,-0.368044 -0.0381,-0.654682 0.0179,-0.444252 0.0323,-0.502387 0.1908,-0.765438 0.18418,-0.305739 0.42878,-0.529063 0.70661,-0.64515 0.27654,-0.115547 1.02859,-0.105513 1.41626,0.0189 0.17661,0.05668 0.32509,0.103338 0.32996,0.103689 0.005,3.45e-4 0.0341,-0.127191 0.065,-0.283425 0.0309,-0.156235 0.12459,-0.572427 0.20825,-0.924873 0.12309,-0.518595 0.17829,-0.66699 0.28938,-0.778083 0.14954,-0.149545 0.18178,-0.159315 0.29308,-0.08884 0.13825,0.08754 0.0506,1.410529 -0.15459,2.333792 -0.0597,0.268606 -0.0568,0.293128 0.0582,0.494021 0.10686,0.186614 0.1208,0.269281 0.11889,0.705408 -0.001,0.271711 -0.0181,0.560714 -0.0377,0.642227 l -0.0355,0.148207 0.11409,-0.136455 c 0.20529,-0.245522 0.38733,-0.671283 0.47961,-1.121691 0.10374,-0.506313 0.26413,-0.831376 0.43087,-0.873225 0.27712,-0.06955 0.32823,0.218182 0.16194,0.911798 -0.22451,0.936535 -0.0545,1.639491 0.39646,1.639491 0.15482,0 0.21721,-0.03637 0.40277,-0.234746 0.30108,-0.321873 0.61332,-0.871144 0.68062,-1.197273 0.0758,-0.367082 0.16618,-0.494664 0.35058,-0.494664 0.21647,0 0.27152,0.151877 0.20127,0.555282 -0.0655,0.376093 -0.0716,1.022055 -0.0106,1.118369 0.13213,0.208603 0.3165,-0.197775 0.99468,-2.192374 0.6104,-1.795244 0.65049,-1.971884 0.68499,-3.018391 0.0327,-0.991465 0.0577,-1.073295 0.32055,-1.047456 0.23044,0.02266 0.27554,0.166393 0.27591,0.87941 7.9e-4,1.511015 -0.20979,2.496678 -1.03389,4.839401 -0.13806,0.392467 -0.24473,0.73245 -0.23704,0.755517 0.008,0.02307 0.22493,-0.132765 0.48275,-0.346292 0.35849,-0.296893 0.51433,-0.466125 0.66241,-0.719322 0.10649,-0.182099 0.3323,-0.464258 0.5018,-0.627019 0.25439,-0.244275 0.33777,-0.29593 0.47771,-0.29593 0.19673,0 0.33305,0.123457 0.33305,0.301621 0,0.108355 -0.10608,0.256056 -0.76254,1.061774 -0.0623,0.0765 -0.10295,0.218872 -0.1167,0.409082 l -0.0211,0.291741 0.22685,0.132941 c 0.19243,0.112769 0.32393,0.141789 0.86663,0.19125 0.35188,0.03207 0.65748,0.07601 0.67911,0.09764 0.0216,0.02163 -0.005,0.120856 -0.0583,0.220497 -0.13284,0.246507 -0.41489,0.351584 -0.93746,0.349245 -0.21737,-9.73e-4 -0.46573,-0.02218 -0.55191,-0.04713 z m -7.10616,-0.71552 c 0.1771,-0.116042 0.33061,-0.359853 0.29574,-0.469713 -0.031,-0.09771 -0.0339,-0.09741 -0.13863,0.01501 -0.25581,0.274436 -0.45766,0.384104 -0.76633,0.416366 -0.24219,0.02531 -0.29346,0.04494 -0.25101,0.0961 0.10978,0.132269 0.62278,0.09783 0.86023,-0.05776 z m -0.22574,-0.690679 c 0.1209,-0.08001 0.2478,-0.232572 0.34476,-0.414483 0.14096,-0.264477 0.15343,-0.326372 0.15343,-0.761623 v -0.473752 l -0.19816,-0.101093 c -0.29215,-0.149047 -0.92398,-0.227949 -1.20201,-0.150106 -0.42422,0.118774 -0.67472,0.514242 -0.67472,1.065193 0,0.37835 0.0767,0.557054 0.31785,0.741025 0.2186,0.166733 0.37643,0.211978 0.75771,0.217203 0.25419,0.0035 0.34417,-0.01848 0.50114,-0.122364 z M 27.183112,75.454586 c -0.100528,-0.06282 -0.249969,-0.203138 -0.33209,-0.311823 -0.137152,-0.181517 -0.149334,-0.229791 -0.1496,-0.592825 -2.12e-4,-0.291823 0.02596,-0.453377 0.100059,-0.617527 0.104531,-0.231575 0.479109,-0.65498 0.54398,-0.614887 0.02052,0.01268 -0.0054,0.144546 -0.05759,0.293036 -0.169821,0.483169 -0.07996,1.123068 0.177029,1.260603 0.115583,0.06186 0.834934,0.04575 0.900856,-0.02017 0.01482,-0.01483 -0.0035,-0.06369 -0.04079,-0.10858 -0.05166,-0.06224 -0.06923,-0.30596 -0.07399,-1.026288 -0.005,-0.756821 -0.03223,-1.109542 -0.136906,-1.773846 -0.149769,-0.95045 -0.170673,-1.468016 -0.05929,-1.468016 0.09413,0 0.438974,1.087866 0.573145,1.808078 0.10261,0.550802 0.219559,2.187522 0.167928,2.350196 -0.01576,0.04967 -0.01561,0.09031 3.56e-4,0.09031 0.01596,0 0.23421,-0.102425 0.485,-0.22761 0.601832,-0.300414 0.932875,-0.560603 1.21335,-0.953653 l 0.230675,-0.323262 v -0.643347 c 0,-0.620125 -0.0053,-0.652852 -0.145844,-0.906635 -0.215137,-0.38838 -0.641935,-0.756437 -1.196584,-1.031897 l -0.475764,-0.236282 -0.709377,-0.01699 c -0.795996,-0.01907 -1.139406,0.05195 -1.633788,0.337875 -0.337186,0.195011 -0.425372,0.335507 -0.429634,0.684488 -0.003,0.246873 -0.0157,0.280838 -0.109865,0.294257 -0.09168,0.01307 -0.114041,-0.0202 -0.161111,-0.239674 -0.07574,-0.353146 -0.0026,-0.595141 0.258302,-0.854378 0.480682,-0.477661 1.271546,-0.70494 2.306465,-0.662833 0.498242,0.02027 0.615036,0.04271 0.949512,0.182428 1.362371,0.569093 2.043138,1.52984 1.942245,2.741037 -0.06339,0.760975 -0.481412,1.391218 -1.270447,1.915419 -0.817059,0.542821 -1.351726,0.734049 -2.140033,0.765402 -0.502583,0.01999 -0.55716,0.01303 -0.726203,-0.0926 z m 4.621862,-0.567568 c -0.159117,-0.292976 -0.326849,-0.644289 -0.372739,-0.780697 -0.178444,-0.530429 -0.06728,-0.945493 0.293603,-1.09628 0.2447,-0.102242 0.836687,-0.135701 1.314765,-0.07431 0.659745,0.08472 0.632158,0.221365 -0.07514,0.372164 -1.007839,0.214876 -0.954286,0.195736 -0.971881,0.347358 -0.0089,0.07634 0.04008,0.364456 0.10876,0.640251 0.158934,0.63825 0.1884,1.084534 0.07315,1.107803 -0.05887,0.01188 -0.160796,-0.130138 -0.370516,-0.516288 z m 38.788636,0.477651 c -0.18973,-0.02368 -0.440041,-0.067 -0.556246,-0.09626 -0.174952,-0.04405 -0.232436,-0.03934 -0.334315,0.02741 -0.11051,0.07241 -0.134645,0.07301 -0.237099,0.0059 -0.06466,-0.04237 -0.170937,-0.06387 -0.245367,-0.04964 -0.189719,0.03627 -0.431002,-0.212655 -0.431002,-0.444648 0,-0.206535 0.163162,-0.430381 0.313707,-0.430381 0.11757,0 0.327789,0.125113 0.394453,0.234761 0.03042,0.05003 0.08053,0.0055 0.191097,-0.169926 0.08243,-0.130758 0.68856,-0.771285 1.346964,-1.423393 1.156343,-1.145285 1.362975,-1.398171 1.292502,-1.58182 -0.04091,-0.106603 -0.773661,-0.05502 -1.445723,0.101782 -0.584481,0.136365 -0.885636,0.162953 -0.96352,0.08507 -0.233531,-0.233531 0.759991,-0.611225 1.870015,-0.710897 0.559636,-0.05025 0.615282,-0.04738 0.765733,0.03948 0.376704,0.217479 0.418912,0.652614 0.110126,1.135323 -0.09888,0.154569 -0.666954,0.76105 -1.285244,1.372131 -0.609425,0.602319 -1.108046,1.120843 -1.108046,1.152277 0,0.09611 0.305747,0.122301 1.146579,0.09824 0.6978,-0.01997 0.858606,-0.04048 1.209447,-0.154295 l 0.404641,-0.131265 -0.07694,-0.184141 c -0.27035,-0.64704 0.398217,-1.921888 1.357989,-2.589456 0.297411,-0.206868 0.811741,-0.432372 1.065471,-0.467149 0.27758,-0.03805 0.863761,0.06193 1.039658,0.177314 0.258887,0.169828 0.324152,0.330586 0.324507,0.799343 4.94e-4,0.336153 -0.02609,0.496578 -0.124518,0.758062 -0.23547,0.625586 -0.835375,1.355038 -1.482054,1.802084 -0.446966,0.308987 -0.711983,0.400765 -1.192913,0.413114 -0.290162,0.0075 -0.37918,-0.0094 -0.491074,-0.09283 l -0.136668,-0.101935 -0.348762,0.142262 c -0.191819,0.07824 -0.482148,0.172951 -0.645175,0.210459 -0.387621,0.08918 -1.292567,0.127437 -1.728224,0.07306 z m 4.027542,-0.871932 c 0.52841,-0.264351 1.195107,-0.937667 1.465312,-1.47985 0.116609,-0.233992 0.224152,-0.540968 0.258393,-0.737587 0.05364,-0.308006 0.05056,-0.347633 -0.03592,-0.463736 -0.08545,-0.114702 -0.132205,-0.128447 -0.484669,-0.142471 -0.440677,-0.01753 -0.684289,0.03936 -0.977984,0.228406 -0.559154,0.359914 -0.956415,0.806689 -1.226844,1.379763 -0.134426,0.284866 -0.142231,0.331603 -0.103122,0.617526 0.04831,0.353161 0.01718,0.34272 0.570734,0.191422 0.210077,-0.05742 0.425515,-0.104397 0.478756,-0.104397 0.246102,0 0.131014,0.229403 -0.199787,0.398241 -0.177216,0.09045 -0.294057,0.293389 -0.168916,0.293389 0.03456,0 0.225382,-0.08132 0.424047,-0.180706 z m 74.445268,0.796499 c -0.10839,-0.115373 -0.12188,-0.173035 -0.12188,-0.520969 0,-0.21518 -0.0111,-0.391085 -0.0247,-0.390899 -0.0136,1.97e-4 -0.0801,0.08166 -0.1478,0.181048 -0.21376,0.313791 -0.65945,0.64751 -0.91619,0.68601 -0.47811,0.0717 -0.78715,-0.05621 -1.03284,-0.427466 -0.0673,-0.101708 -0.13744,-0.247858 -0.15585,-0.324777 -0.053,-0.221551 -0.0607,-0.221055 -0.28052,0.0182 -0.11474,0.124877 -0.28015,0.257113 -0.36759,0.293859 -0.16902,0.07103 -0.71547,0.085 -0.87544,0.02237 -0.0568,-0.02222 -0.15245,-0.0092 -0.23491,0.03192 -0.4494,0.224187 -0.97164,-0.446101 -1.24842,-1.602333 l -0.085,-0.355097 -0.87232,-0.01889 c -0.62739,-0.01358 -0.93628,-0.04094 -1.10012,-0.09745 l -0.22782,-0.07856 -0.0818,0.416174 c -0.13627,0.693574 -0.44005,1.4493 -0.68802,1.711619 -0.14417,0.152513 -0.37866,0.182602 -0.47918,0.06148 -0.11321,-0.136418 0.0889,-0.897688 0.22451,-0.845647 0.0669,0.02567 0.27946,-0.485678 0.37019,-0.890512 0.0688,-0.307129 0.0705,-2.427197 0.002,-2.932075 -0.0881,-0.652479 -0.19933,-1.170805 -0.35384,-1.649275 -0.078,-0.241408 -0.12985,-0.458159 -0.11531,-0.481671 0.0145,-0.02351 0.0696,-0.04275 0.12238,-0.04275 0.17944,0 0.65629,1.176671 0.81063,2.000289 0.0748,0.398961 0.17065,1.52073 0.17334,2.027748 8.4e-4,0.154354 0.0206,0.200648 0.0875,0.205017 0.0476,0.0031 0.5144,0.0225 1.03744,0.0431 l 0.951,0.03746 v -0.109983 c 0,-0.06049 -0.0323,-0.347453 -0.0719,-0.637692 -0.0395,-0.29024 -0.12987,-1.03902 -0.20075,-1.663957 -0.0709,-0.624937 -0.14819,-1.214058 -0.1718,-1.309157 -0.0731,-0.294379 -0.0787,-0.46932 -0.0151,-0.46932 0.10508,0 0.55883,0.811144 0.63275,1.131153 0.0383,0.16583 0.15977,0.857283 0.2699,1.536562 0.11013,0.679279 0.21287,1.296188 0.22829,1.370909 0.0259,0.125563 0.0461,0.135856 0.26645,0.135856 0.22819,0 0.24366,-0.009 0.36161,-0.209959 0.1874,-0.319315 0.5048,-0.656826 0.70868,-0.753575 0.23793,-0.112904 0.78679,-0.07606 1.02072,0.06852 0.31329,0.193626 0.52807,0.530301 0.52807,0.827785 0,0.07345 0.0389,0.176481 0.0865,0.228949 0.0729,0.08049 0.0903,0.227767 0.11116,0.94253 0.0136,0.465924 0.0447,0.880481 0.0691,0.921237 0.11318,0.188895 0.2534,0.296413 0.38658,0.296413 0.34897,0 0.68452,-0.335829 1.06647,-1.067334 0.27603,-0.528662 0.2841,-0.538235 0.45393,-0.538235 0.25406,0 0.34553,0.208878 0.34611,0.790434 5e-4,0.24454 0.0224,0.633582 0.0492,0.864537 0.0437,0.376836 0.0394,0.432589 -0.0423,0.543424 -0.12778,0.173338 -0.30378,0.182253 -0.45342,0.02297 z m -3.11409,-1.135284 0.12013,-0.118217 -0.19423,0.006 c -0.28282,0.0088 -0.58944,-0.151098 -0.58944,-0.307354 0,-0.117493 0.0135,-0.123136 0.29641,-0.12355 0.16303,-2.47e-4 0.34087,-0.01723 0.39522,-0.03775 0.1271,-0.04801 0.35247,-0.367578 0.44583,-0.632186 0.084,-0.238074 0.0967,-0.749064 0.022,-0.88853 -0.13335,-0.24917 -0.66961,-0.317591 -0.89553,-0.114261 -0.18777,0.168996 -0.39821,0.519103 -0.46676,0.776522 -0.0908,0.341101 -0.0902,1.132034 9.9e-4,1.30841 0.15875,0.306985 0.61614,0.376165 0.86537,0.130887 z m -1.51063,-1.076943 c 0.031,-0.383213 0.0304,-0.385829 -0.0796,-0.352028 -0.0609,0.01873 -0.119,0.04135 -0.12903,0.05028 -0.01,0.0089 0.0204,0.173947 0.0676,0.366718 0.0473,0.192771 0.0913,0.343882 0.0978,0.335803 0.007,-0.0081 0.026,-0.188426 0.0431,-0.400771 z m -89.51895,2.185453 c -0.273598,-0.13543 -0.585654,-0.480474 -0.748276,-0.827377 -0.126761,-0.270403 -0.131098,-0.308448 -0.122078,-1.070798 0.0083,-0.70102 0.02417,-0.837936 0.140382,-1.210353 0.07207,-0.230954 0.149727,-0.568641 0.172579,-0.750414 0.047,-0.37382 0.08302,-0.458128 0.270379,-0.632845 0.119833,-0.111745 0.167825,-0.122443 0.50402,-0.112352 0.322118,0.0097 0.413138,0.0344 0.683823,0.185772 0.38349,0.21446 0.662705,0.528621 0.896108,1.008263 0.177484,0.36473 0.177781,0.366458 0.173843,1.014059 -0.0067,1.101168 -0.187446,1.684999 -0.682285,2.203785 l -0.281259,0.294871 -0.400047,-3.9e-5 c -0.30537,-3e-5 -0.449071,-0.0243 -0.607189,-0.102572 z m 0.873969,-0.366658 c 0.334029,-0.172732 0.560369,-0.687616 0.638993,-1.453597 0.108781,-1.059777 -0.139424,-1.740933 -0.768769,-2.109753 -0.243343,-0.142608 -0.641009,-0.179321 -0.711254,-0.06566 -0.09615,0.155568 -0.1342,0.954948 -0.0728,1.529371 l 0.0396,0.370516 -0.120725,-0.148206 c -0.179285,-0.220097 -0.266909,-0.372722 -0.340351,-0.592826 -0.06275,-0.188076 -0.06764,-0.19165 -0.10137,-0.0741 -0.05591,0.194871 -0.0507,1.187067 0.0079,1.510042 0.146325,0.80606 0.864568,1.32597 1.42875,1.034219 z m 2.005513,0.323547 c -0.477042,-0.192096 -0.69073,-0.499889 -0.687684,-0.990527 0.0033,-0.529937 0.184209,-0.919029 0.716978,-1.54197 L 58.07289,72.40464 57.955633,72.217534 c -0.209183,-0.333792 -0.368549,-0.687459 -0.403802,-0.896127 -0.06149,-0.363973 0.256979,-0.727656 0.910138,-1.039343 0.37272,-0.177861 0.373847,-0.178051 1.162098,-0.195941 1.13202,-0.02569 1.409379,0.05301 1.409379,0.399901 0,0.139053 -0.152443,0.289715 -0.790434,0.781198 -0.60363,0.465012 -1.432662,1.180782 -1.432662,1.236931 0,0.02393 0.06497,0.149445 0.144373,0.278917 0.247604,0.403722 0.403855,0.88863 0.449943,1.396352 0.03789,0.417381 0.03196,0.491549 -0.05355,0.670185 -0.142717,0.298132 -0.411475,0.431446 -0.910107,0.451447 -0.307431,0.01233 -0.450788,-0.006 -0.638776,-0.0817 z m 1.04764,-0.555788 c 0.07258,-0.07258 0.07594,-0.333417 0.0088,-0.687357 -0.05242,-0.276513 -0.380715,-1.031837 -0.448474,-1.031837 -0.05053,0 -0.451743,0.523418 -0.554687,0.723637 -0.125542,0.24417 -0.187852,0.586928 -0.13295,0.731333 0.08128,0.213796 0.324622,0.323112 0.719711,0.323321 0.205259,9.9e-5 0.37263,-0.02416 0.407568,-0.0591 z m -0.07182,-2.921637 c 0.167202,-0.145092 0.548545,-0.448135 0.847428,-0.67343 0.298883,-0.225295 0.554539,-0.419844 0.568125,-0.432332 0.01358,-0.01249 -0.21984,-0.01512 -0.518723,-0.0058 -0.52686,0.01634 -0.550893,0.02204 -0.788504,0.186954 -0.481172,0.333961 -0.619457,0.489374 -0.619457,0.696183 0,0.156024 0.129326,0.490856 0.190017,0.491964 0.0094,1.48e-4 0.153911,-0.118399 0.321114,-0.26349 z m 1.943995,3.47376 c -0.204836,-0.161124 -0.186936,-0.433105 0.04543,-0.690307 0.196287,-0.217266 0.361902,-0.253564 0.551383,-0.120847 0.145314,0.101782 0.136869,0.275158 -0.02994,0.614726 -0.113402,0.230847 -0.156049,0.273931 -0.283562,0.286467 -0.09582,0.0094 -0.19826,-0.02314 -0.283311,-0.09004 z m 4.288266,-0.196966 c -0.27147,-0.04816 -0.469457,-0.2211 -0.469136,-0.409784 2.97e-4,-0.168877 0.140832,-0.357074 0.763473,-1.02234 0.915564,-0.978241 1.232851,-1.476964 1.202865,-1.890708 l -0.01514,-0.208882 -0.759461,-0.01135 c -1.064206,-0.0159 -1.135107,-0.112203 -0.352863,-0.479287 0.340885,-0.159968 0.442777,-0.184867 0.777029,-0.18988 0.442619,-0.0066 0.632529,0.06848 0.813071,0.321602 0.09744,0.136607 0.115049,0.22181 0.115049,0.556519 0,0.358317 -0.01735,0.429812 -0.185839,0.765733 -0.175676,0.350255 -0.331842,0.543928 -1.313663,1.629174 l -0.313851,0.346911 0.412656,-2.96e-4 c 0.22696,-1.48e-4 0.631507,-0.03328 0.898992,-0.0736 0.734406,-0.110695 1.768942,-0.194721 1.922017,-0.156109 0.102013,0.02573 0.135856,0.06449 0.135856,0.155566 0,0.199304 -0.300399,0.310036 -1.482064,0.546316 -0.7212,0.144207 -1.704331,0.19929 -2.148993,0.120402 z m -1.2699,-0.07596 c -0.268205,-0.145586 -0.30462,-0.687419 -0.114996,-1.711036 0.06703,-0.361826 0.200005,-0.900963 0.295505,-1.198081 0.0955,-0.297118 0.163461,-0.550388 0.151027,-0.562823 -0.02349,-0.02349 -0.482294,0.404748 -1.462406,1.364947 -0.499096,0.488957 -0.591366,0.559145 -0.716331,0.544889 -0.115338,-0.01316 -0.146539,-0.04335 -0.159256,-0.154124 -0.01392,-0.121249 0.104347,-0.256624 0.986813,-1.129568 0.551446,-0.545495 1.129322,-1.089297 1.284169,-1.208449 0.651719,-0.501486 0.782756,-0.14948 0.434284,1.16662 -0.263476,0.995089 -0.342849,1.461669 -0.342849,2.015391 0,0.473744 0.01036,0.533502 0.111155,0.640986 l 0.111155,0.118536 -0.116628,0.09461 c -0.138065,0.111997 -0.27852,0.117506 -0.461642,0.01811 z m 15.347265,-0.429194 -0.134532,-0.159882 0.0274,-0.766407 c 0.02221,-0.621105 0.05107,-0.845734 0.152238,-1.184811 0.06866,-0.230122 0.119746,-0.423497 0.113516,-0.429724 -0.0062,-0.0062 -0.388538,0.391444 -0.849583,0.883711 -0.953204,1.017754 -1.073736,1.122859 -1.198209,1.044841 -0.203448,-0.127516 -0.136567,-0.249427 0.516736,-0.941978 0.776824,-0.823485 1.34405,-1.463108 1.886618,-2.127416 0.295178,-0.361408 0.443992,-0.505839 0.521193,-0.505839 0.27601,0 0.297173,0.292841 0.06013,0.831981 -0.435613,0.990758 -0.651431,1.932833 -0.609276,2.659564 0.01233,0.212587 0.03948,0.450722 0.06034,0.529189 0.03126,0.117621 0.01717,0.158625 -0.0803,0.233562 -0.174454,0.134137 -0.314024,0.114144 -0.466272,-0.06679 z M 149.2752,71.83831 c -0.28686,-0.303326 -0.55297,-0.700747 -0.55297,-0.825856 0,-0.09479 0.25105,-0.646303 0.34661,-0.761446 0.0483,-0.05823 0.077,-0.06166 0.13228,-0.01581 0.0542,0.04501 0.063,0.128939 0.038,0.362742 -0.0307,0.286826 -0.0196,0.333939 0.1946,0.825885 0.12494,0.286939 0.22716,0.557483 0.22716,0.601209 0,0.145749 -0.13138,0.08214 -0.38566,-0.186725 z"
       id="path1429"
       inkscape:connector-curvature="0" />
  </g>
</svg>
