<?xml version="1.0" encoding="UTF-8" standalone="no"?>
<!-- Created with Inkscape (http://www.inkscape.org/) -->

<svg
   xmlns:dc="http://purl.org/dc/elements/1.1/"
   xmlns:cc="http://creativecommons.org/ns#"
   xmlns:rdf="http://www.w3.org/1999/02/22-rdf-syntax-ns#"
   xmlns:svg="http://www.w3.org/2000/svg"
   xmlns="http://www.w3.org/2000/svg"
   xmlns:sodipodi="http://sodipodi.sourceforge.net/DTD/sodipodi-0.dtd"
   xmlns:inkscape="http://www.inkscape.org/namespaces/inkscape"
   width="100mm"
   height="100mm"
   viewBox="0 0 100 100"
   version="1.1"
   id="svg1876"
   inkscape:version="0.92.3 (2405546, 2018-03-11)"
   sodipodi:docname="kamera_stil_2.svg">
  <defs
     id="defs1870" />
  <sodipodi:namedview
     id="base"
     pagecolor="#ffffff"
     bordercolor="#666666"
     borderopacity="1.0"
     inkscape:pageopacity="0.0"
     inkscape:pageshadow="2"
     inkscape:zoom="1.979899"
     inkscape:cx="195.72425"
     inkscape:cy="182.75519"
     inkscape:document-units="mm"
     inkscape:current-layer="layer1"
     showgrid="true"
     inkscape:window-width="1920"
     inkscape:window-height="1001"
     inkscape:window-x="-9"
     inkscape:window-y="-9"
     inkscape:window-maximized="1"
     inkscape:snap-global="false">
    <inkscape:grid
       type="xygrid"
       id="grid2421"
       enabled="false" />
  </sodipodi:namedview>
  <metadata
     id="metadata1873">
    <rdf:RDF>
      <cc:Work
         rdf:about="">
        <dc:format>image/svg+xml</dc:format>
        <dc:type
           rdf:resource="http://purl.org/dc/dcmitype/StillImage" />
        <dc:title />
      </cc:Work>
    </rdf:RDF>
  </metadata>
  <g
     id="g4583"
     inkscape:label="cyclist1"
     transform="matrix(0.922031,0,0,0.922031,-46.751484,7.2919318)">
    <circle
       inkscape:label="rearwheel"
       cx="59.503933"
       cy="46.616127"
       r="3.8513076"
       id="path3817"
       style="display:inline;fill:#000000;fill-opacity:0;stroke:#000000;stroke-width:0.90114427;stroke-linecap:round;stroke-miterlimit:4;stroke-dasharray:none;stroke-opacity:1" />
    <circle
       inkscape:label="frontwheel"
       style="display:inline;fill:#000000;fill-opacity:0;stroke:#000000;stroke-width:0.90114427;stroke-linecap:round;stroke-miterlimit:4;stroke-dasharray:none;stroke-opacity:1"
       id="circle4624"
       r="3.8513076"
       cy="46.655769"
       cx="73.730103" />
    <path
       inkscape:label="rahmen"
       inkscape:connector-curvature="0"
       id="path4626"
       d="m 73.670682,46.636088 -3.13946,-4.60949 -7.47069,-0.11875 -3.45723,4.49032 7.47075,0.15896 3.17906,-4.53011"
       style="display:inline;fill:none;stroke:#000000;stroke-width:0.75095344;stroke-linecap:round;stroke-linejoin:round;stroke-miterlimit:4;stroke-dasharray:none;stroke-opacity:1" />
    <path
       inkscape:label="head"
       sodipodi:open="true"
       d="m 70.497308,34.710701 a 1.5821162,1.5821162 0 0 1 -1.579602,1.582114 1.5821162,1.5821162 0 0 1 -1.584623,-1.577085 1.5821162,1.5821162 0 0 1 1.574565,-1.587127 1.5821162,1.5821162 0 0 1 1.589628,1.57204"
       sodipodi:end="6.2768281"
       sodipodi:start="0"
       sodipodi:ry="1.5821162"
       sodipodi:rx="1.5821162"
       sodipodi:cy="34.710701"
       sodipodi:cx="68.915192"
       sodipodi:type="arc"
       id="path4628"
       style="display:inline;fill:#000000;fill-opacity:1;stroke:#000000;stroke-width:0;stroke-linecap:round;stroke-miterlimit:4;stroke-dasharray:none;stroke-opacity:1" />
    <path
       inkscape:label="body"
       sodipodi:nodetypes="ccsccccccscccsscccc"
       inkscape:connector-curvature="0"
       id="path4630"
       d="m 62.135922,40.227428 3.45627,-3.7934 c 0.50826,-0.5758 1.66077,-1.00378 2.13551,0.22436 l 1.23628,2.44454 2.3605,0.0277 c 0,0 0.84278,0.81497 -0.19686,1.29258 h -2.97855 l -1.18015,-2.02313 -1.99499,2.07936 c 0,0 -0.88445,0.791119 0.25303,0.98347 l 1.99504,0.33715 c 0,0 0.78666,0.19643 0.59,1.18016 0.0575,1.545409 0.0575,5.19827 0.0575,5.19827 0,0 -0.80783,0.86485 -1.51739,-0.0275 l 0.0544,-2.7387 c 0.0384,-2.00968 0.009,-2.01005 0.009,-2.01005 l -3.84959,-0.92722 c 0,0 -1.29247,-1.26458 -0.42154,-2.24786 z"
       style="display:inline;fill:#000000;fill-opacity:1;stroke:#000000;stroke-width:0.07947583px;stroke-linecap:butt;stroke-linejoin:miter;stroke-opacity:1" />
  </g>
  <g
     inkscape:label="camera1"
     inkscape:groupmode="layer"
     id="layer1"
     transform="translate(0,-197)">
    <path
       style="display:inline;fill:none;stroke:#0003ff;stroke-width:0.29999998;stroke-linecap:round;stroke-linejoin:miter;stroke-miterlimit:4;stroke-dasharray:none;stroke-opacity:1"
       d="M 90.785909,255.47986 16.73274,236.03432"
       inkscape:connector-curvature="0"
       id="path944-4-3"
       inkscape:label="ray_start"
       sodipodi:nodetypes="cc" />
    <path
       style="display:inline;fill:none;stroke:#0003ff;stroke-width:0.30000001;stroke-linecap:round;stroke-linejoin:miter;stroke-miterlimit:4;stroke-dasharray:none;stroke-opacity:1"
       d="M 91.680546,252.48052 11.331227,243.24609"
       inkscape:connector-curvature="0"
       id="path944-4"
       inkscape:label="ray_start"
       sodipodi:nodetypes="cc" />
    <g
       transform="matrix(0.37788744,0,0,0.37788744,45.697509,234.01738)"
       inkscape:label="cyclist"
       id="g4714">
      <circle
         style="display:inline;fill:#000000;fill-opacity:0;stroke:#000000;stroke-width:0.90114427;stroke-linecap:round;stroke-miterlimit:4;stroke-dasharray:none;stroke-opacity:1"
         id="circle4704"
         r="3.8513076"
         cy="-44.897423"
         cx="-128.74606"
         inkscape:label="rearwheel"
         transform="scale(-1)" />
      <circle
         cx="-114.51989"
         cy="-44.85778"
         r="3.8513076"
         id="circle4706"
         style="display:inline;fill:#000000;fill-opacity:0;stroke:#000000;stroke-width:0.90114427;stroke-linecap:round;stroke-miterlimit:4;stroke-dasharray:none;stroke-opacity:1"
         inkscape:label="frontwheel"
         transform="scale(-1)" />
      <path
         style="display:inline;fill:none;stroke:#000000;stroke-width:0.75095344;stroke-linecap:round;stroke-linejoin:round;stroke-miterlimit:4;stroke-dasharray:none;stroke-opacity:1"
         d="m 114.57931,44.877464 3.13946,4.60949 7.47069,0.11875 3.45723,-4.49032 -7.47075,-0.15896 -3.17906,4.53011"
         id="path4708"
         inkscape:connector-curvature="0"
         inkscape:label="rahmen" />
      <path
         style="display:inline;fill:#000000;fill-opacity:1;stroke:#000000;stroke-width:0;stroke-linecap:round;stroke-miterlimit:4;stroke-dasharray:none;stroke-opacity:1"
         id="path4710"
         sodipodi:type="arc"
         sodipodi:cx="-119.3348"
         sodipodi:cy="-56.802849"
         sodipodi:rx="1.5821162"
         sodipodi:ry="1.5821162"
         sodipodi:start="0"
         sodipodi:end="6.2768281"
         d="m -117.75268,-56.802849 a 1.5821162,1.5821162 0 0 1 -1.57961,1.582114 1.5821162,1.5821162 0 0 1 -1.58462,-1.577085 1.5821162,1.5821162 0 0 1 1.57457,-1.587127 1.5821162,1.5821162 0 0 1 1.58962,1.57204"
         sodipodi:open="true"
         inkscape:label="head"
         transform="scale(-1)" />
      <path
         style="display:inline;fill:#000000;fill-opacity:1;stroke:#000000;stroke-width:0.07947583px;stroke-linecap:butt;stroke-linejoin:miter;stroke-opacity:1"
         d="m 126.11407,51.286124 -3.45627,3.7934 c -0.50826,0.5758 -1.66077,1.00378 -2.13551,-0.22436 l -1.23628,-2.44454 -2.3605,-0.0277 c 0,0 -0.84278,-0.81497 0.19686,-1.29258 h 2.97855 l 1.18015,2.02313 1.99499,-2.07936 c 0,0 0.88445,-0.791119 -0.25303,-0.98347 l -1.99504,-0.33715 c 0,0 -0.78666,-0.19643 -0.59,-1.18016 -0.0575,-1.545409 -0.0575,-5.19827 -0.0575,-5.19827 0,0 0.80783,-0.86485 1.51739,0.0275 l -0.0544,2.7387 c -0.0384,2.00968 -0.009,2.01005 -0.009,2.01005 l 3.84959,0.92722 c 0,0 1.29247,1.26458 0.42154,2.24786 z"
         id="path4712"
         inkscape:connector-curvature="0"
         sodipodi:nodetypes="ccsccccccscccsscccc"
         inkscape:label="body" />
    </g>
    <path
       style="display:inline;fill:none;stroke:#000000;stroke-width:0.13999999;stroke-linecap:butt;stroke-linejoin:miter;stroke-miterlimit:4;stroke-dasharray:none;stroke-opacity:1"
       d="m 78.469349,245.42269 -8.471438,4.75904 28.149341,-3.5623 z m -8.471438,4.75904 7.806651,7.69485 19.50062,1.99442 z"
       id="path3792"
       inkscape:connector-curvature="0"
       inkscape:label="kanten" />
    <path
       style="display:inline;fill:#000000;fill-opacity:1;stroke:#000000;stroke-width:0;stroke-linecap:round;stroke-linejoin:round;stroke-miterlimit:4;stroke-dasharray:none;stroke-opacity:0.56218902"
       id="path4634"
       sodipodi:type="arc"
       sodipodi:cx="69.997948"
       sodipodi:cy="250.18181"
       sodipodi:rx="0.3071191"
       sodipodi:ry="0.3071191"
       sodipodi:start="0"
       sodipodi:end="6.2768323"
       sodipodi:open="true"
       d="m 70.305067,250.18181 a 0.3071191,0.3071191 0 0 1 -0.306632,0.30712 0.3071191,0.3071191 0 0 1 -0.307605,-0.30615 0.3071191,0.3071191 0 0 1 0.305654,-0.30809 0.3071191,0.3071191 0 0 1 0.308577,0.30517"
       inkscape:label="projection center" />
    <g
       id="g3120"
       inkscape:label="sideplanes"
       sodipodi:insensitive="true"
       transform="translate(28.140906,5.4655943)">
      <path
         inkscape:label="sideplane1"
         inkscape:connector-curvature="0"
         id="path3117"
         d="m 41.868642,244.71613 28.137704,-3.5623 -0.842068,13.25157 z"
         style="fill:#000000;fill-opacity:0.07623321;stroke:none;stroke-width:0.26458332px;stroke-linecap:butt;stroke-linejoin:miter;stroke-opacity:1" />
      <path
         inkscape:label="sideplane1"
         inkscape:connector-curvature="0"
         id="path3117-1"
         d="m 41.868642,244.71613 27.295636,9.68927 -19.500611,-1.99442 z"
         style="fill:#000000;fill-opacity:0.19282514;stroke:none;stroke-width:0.26458332px;stroke-linecap:butt;stroke-linejoin:miter;stroke-opacity:1"
         sodipodi:nodetypes="cccc" />
      <path
         inkscape:label="sideplane1"
         inkscape:connector-curvature="0"
         id="path3117-1-6"
         d="m 41.868642,244.71613 28.137704,-3.5623 -19.677892,-1.19672 z"
         style="fill:#000000;fill-opacity:0.19282514;stroke:none;stroke-width:0.26458332px;stroke-linecap:butt;stroke-linejoin:miter;stroke-opacity:1"
         sodipodi:nodetypes="cccc" />
      <path
         inkscape:label="sideplane1"
         inkscape:connector-curvature="0"
         id="path3117-1-6-6"
         d="m 41.868642,244.71613 7.795025,7.69485 0.664776,-12.45389 z"
         style="fill:#000000;fill-opacity:0.14798207;stroke:none;stroke-width:0.26458332px;stroke-linecap:butt;stroke-linejoin:miter;stroke-opacity:1"
         sodipodi:nodetypes="cccc" />
    </g>
    <path
       style="display:inline;fill:#ffffff;fill-opacity:0.63500001;stroke:#000000;stroke-width:0.30038151;stroke-linecap:butt;stroke-linejoin:miter;stroke-miterlimit:4;stroke-dasharray:none;stroke-opacity:1"
       d="m 78.46936,245.42271 19.677892,1.19667 -0.84207,13.25161 -19.500609,-1.99441 z"
       id="path3787"
       inkscape:connector-curvature="0"
       inkscape:label="frame" />
  </g>
</svg>
